<svg width="1106" height="1104" viewBox="0 0 1106 1104" fill="none" xmlns="http://www.w3.org/2000/svg">
<path d="M61 84C61 70.1929 72.1929 59 86 59H286C299.807 59 311 70.1929 311 84V284C311 297.807 299.807 309 286 309H86C72.1929 309 61 297.807 61 284V84Z" fill="#26A65B" fill-opacity="0.9"/>
<path fill-rule="evenodd" clip-rule="evenodd" d="M286 71H86C78.8203 71 73 76.8203 73 84V284C73 291.18 78.8203 297 86 297H286C293.18 297 299 291.18 299 284V84C299 76.8203 293.18 71 286 71ZM86 59C72.1929 59 61 70.1929 61 84V284C61 297.807 72.1929 309 86 309H286C299.807 309 311 297.807 311 284V84C311 70.1929 299.807 59 286 59H86Z" fill="#FFA800"/>
<path d="M61 614C61 600.193 72.1929 589 86 589H286C299.807 589 311 600.193 311 614V814C311 827.807 299.807 839 286 839H86C72.1929 839 61 827.807 61 814V614Z" fill="#884400"/>
<path d="M61 349C61 335.193 72.1929 324 86 324H286C299.807 324 311 335.193 311 349V549C311 562.807 299.807 574 286 574H86C72.1929 574 61 562.807 61 549V349Z" fill="#26A65B" fill-opacity="0.9"/>
<path fill-rule="evenodd" clip-rule="evenodd" d="M286 336H86C78.8203 336 73 341.82 73 349V549C73 556.18 78.8203 562 86 562H286C293.18 562 299 556.18 299 549V349C299 341.82 293.18 336 286 336ZM86 324C72.1929 324 61 335.193 61 349V549C61 562.807 72.1929 574 86 574H286C299.807 574 311 562.807 311 549V349C311 335.193 299.807 324 286 324H86Z" fill="#FFA800"/>
<path d="M61 879C61 865.193 72.1929 854 86 854H286C299.807 854 311 865.193 311 879V1079C311 1092.81 299.807 1104 286 1104H86C72.1929 1104 61 1092.81 61 1079V879Z" fill="#F1D693" fill-opacity="0.9"/>
<path d="M591 84C591 70.1929 602.193 59 616 59H816C829.807 59 841 70.1929 841 84V284C841 297.807 829.807 309 816 309H616C602.193 309 591 297.807 591 284V84Z" fill="#26A65B" fill-opacity="0.9"/>
<path fill-rule="evenodd" clip-rule="evenodd" d="M816 71H616C608.82 71 603 76.8203 603 84V284C603 291.18 608.82 297 616 297H816C823.18 297 829 291.18 829 284V84C829 76.8203 823.18 71 816 71ZM616 59C602.193 59 591 70.1929 591 84V284C591 297.807 602.193 309 616 309H816C829.807 309 841 297.807 841 284V84C841 70.1929 829.807 59 816 59H616Z" fill="#FFA800"/>
<path d="M591 614C591 600.193 602.193 589 616 589H816C829.807 589 841 600.193 841 614V814C841 827.807 829.807 839 816 839H616C602.193 839 591 827.807 591 814V614Z" fill="#038AFF" fill-opacity="0.9"/>
<path d="M591 349C591 335.193 602.193 324 616 324H816C829.807 324 841 335.193 841 349V549C841 562.807 829.807 574 816 574H616C602.193 574 591 562.807 591 549V349Z" fill="#26A65B" fill-opacity="0.9"/>
<path d="M591 879C591 865.193 602.193 854 616 854H816C829.807 854 841 865.193 841 879V1079C841 1092.81 829.807 1104 816 1104H616C602.193 1104 591 1092.81 591 1079V879Z" fill="#038AFF" fill-opacity="0.9"/>
<path d="M326 84C326 70.1929 337.193 59 351 59H551C564.807 59 576 70.1929 576 84V284C576 297.807 564.807 309 551 309H351C337.193 309 326 297.807 326 284V84Z" fill="#F1D693" fill-opacity="0.9"/>
<path d="M326 614C326 600.193 337.193 589 351 589H551C564.807 589 576 600.193 576 614V814C576 827.807 564.807 839 551 839H351C337.193 839 326 827.807 326 814V614Z" fill="#F1D693" fill-opacity="0.9"/>
<path d="M326 349C326 335.193 337.193 324 351 324H551C564.807 324 576 335.193 576 349V549C576 562.807 564.807 574 551 574H351C337.193 574 326 562.807 326 549V349Z" fill="#26A65B" fill-opacity="0.9"/>
<path d="M326 879C326 865.193 337.193 854 351 854H551C564.807 854 576 865.193 576 879V1079C576 1092.81 564.807 1104 551 1104H351C337.193 1104 326 1092.81 326 1079V879Z" fill="#F1D693" fill-opacity="0.9"/>
<path d="M856 84C856 70.1929 867.193 59 881 59H1081C1094.81 59 1106 70.1929 1106 84V284C1106 297.807 1094.81 309 1081 309H881C867.193 309 856 297.807 856 284V84Z" fill="#884400"/>
<path d="M856 614C856 600.193 867.193 589 881 589H1081C1094.81 589 1106 600.193 1106 614V814C1106 827.807 1094.81 839 1081 839H881C867.193 839 856 827.807 856 814V614Z" fill="#038AFF" fill-opacity="0.9"/>
<path d="M856 349C856 335.193 867.193 324 881 324H1081C1094.81 324 1106 335.193 1106 349V549C1106 562.807 1094.81 574 1081 574H881C867.193 574 856 562.807 856 549V349Z" fill="#038AFF" fill-opacity="0.9"/>
<path d="M856 879C856 865.193 867.193 854 881 854H1081C1094.81 854 1106 865.193 1106 879V1079C1106 1092.81 1094.81 1104 1081 1104H881C867.193 1104 856 1092.81 856 1079V879Z" fill="#884400"/>
<path d="M191.764 236.636V164.636H206.082V173.432H206.73C207.366 172.023 208.287 170.591 209.491 169.136C210.719 167.659 212.31 166.432 214.264 165.455C216.241 164.455 218.696 163.955 221.628 163.955C225.446 163.955 228.969 164.955 232.196 166.955C235.423 168.932 238.003 171.92 239.935 175.92C241.866 179.898 242.832 184.886 242.832 190.886C242.832 196.727 241.889 201.659 240.003 205.682C238.139 209.682 235.594 212.716 232.366 214.784C229.162 216.83 225.571 217.852 221.594 217.852C218.776 217.852 216.378 217.386 214.401 216.455C212.446 215.523 210.844 214.352 209.594 212.943C208.344 211.511 207.389 210.068 206.73 208.614H206.287V236.636H191.764ZM205.98 190.818C205.98 193.932 206.412 196.648 207.276 198.966C208.139 201.284 209.389 203.091 211.026 204.386C212.662 205.659 214.651 206.295 216.991 206.295C219.355 206.295 221.355 205.648 222.991 204.352C224.628 203.034 225.866 201.216 226.707 198.898C227.571 196.557 228.003 193.864 228.003 190.818C228.003 187.795 227.582 185.136 226.741 182.841C225.901 180.545 224.662 178.75 223.026 177.455C221.389 176.159 219.378 175.511 216.991 175.511C214.628 175.511 212.628 176.136 210.991 177.386C209.378 178.636 208.139 180.409 207.276 182.705C206.412 185 205.98 187.705 205.98 190.818Z" fill="#FFA800"/>
<path d="M175.034 147.182V217H160.273V161.193H159.864L143.875 171.216V158.125L161.159 147.182H175.034Z" fill="#FFA800"/>
<path d="M191.764 501.636V429.636H206.082V438.432H206.73C207.366 437.023 208.287 435.591 209.491 434.136C210.719 432.659 212.31 431.432 214.264 430.455C216.241 429.455 218.696 428.955 221.628 428.955C225.446 428.955 228.969 429.955 232.196 431.955C235.423 433.932 238.003 436.92 239.935 440.92C241.866 444.898 242.832 449.886 242.832 455.886C242.832 461.727 241.889 466.659 240.003 470.682C238.139 474.682 235.594 477.716 232.366 479.784C229.162 481.83 225.571 482.852 221.594 482.852C218.776 482.852 216.378 482.386 214.401 481.455C212.446 480.523 210.844 479.352 209.594 477.943C208.344 476.511 207.389 475.068 206.73 473.614H206.287V501.636H191.764ZM205.98 455.818C205.98 458.932 206.412 461.648 207.276 463.966C208.139 466.284 209.389 468.091 211.026 469.386C212.662 470.659 214.651 471.295 216.991 471.295C219.355 471.295 221.355 470.648 222.991 469.352C224.628 468.034 225.866 466.216 226.707 463.898C227.571 461.557 228.003 458.864 228.003 455.818C228.003 452.795 227.582 450.136 226.741 447.841C225.901 445.545 224.662 443.75 223.026 442.455C221.389 441.159 219.378 440.511 216.991 440.511C214.628 440.511 212.628 441.136 210.991 442.386C209.378 443.636 208.139 445.409 207.276 447.705C206.412 450 205.98 452.705 205.98 455.818Z" fill="#FFA800"/>
<path d="M175.034 412.182V482H160.273V426.193H159.864L143.875 436.216V423.125L161.159 412.182H175.034Z" fill="#FFA800"/>
<path d="M721.764 236.636V164.636H736.082V173.432H736.73C737.366 172.023 738.287 170.591 739.492 169.136C740.719 167.659 742.31 166.432 744.264 165.455C746.241 164.455 748.696 163.955 751.628 163.955C755.446 163.955 758.969 164.955 762.196 166.955C765.423 168.932 768.003 171.92 769.935 175.92C771.867 179.898 772.832 184.886 772.832 190.886C772.832 196.727 771.889 201.659 770.003 205.682C768.139 209.682 765.594 212.716 762.367 214.784C759.162 216.83 755.571 217.852 751.594 217.852C748.776 217.852 746.378 217.386 744.401 216.455C742.446 215.523 740.844 214.352 739.594 212.943C738.344 211.511 737.389 210.068 736.73 208.614H736.287V236.636H721.764ZM735.98 190.818C735.98 193.932 736.412 196.648 737.276 198.966C738.139 201.284 739.389 203.091 741.026 204.386C742.662 205.659 744.651 206.295 746.992 206.295C749.355 206.295 751.355 205.648 752.992 204.352C754.628 203.034 755.866 201.216 756.707 198.898C757.571 196.557 758.003 193.864 758.003 190.818C758.003 187.795 757.582 185.136 756.742 182.841C755.901 180.545 754.662 178.75 753.026 177.455C751.389 176.159 749.378 175.511 746.992 175.511C744.628 175.511 742.628 176.136 740.992 177.386C739.378 178.636 738.139 180.409 737.276 182.705C736.412 185 735.98 187.705 735.98 190.818Z" fill="#FFA800"/>
<path d="M705.034 147.182V217H690.273V161.193H689.864L673.875 171.216V158.125L691.159 147.182H705.034Z" fill="#FFA800"/>
<path fill-rule="evenodd" clip-rule="evenodd" d="M0 1104V30H30V1104H0Z" fill="#E5E5E5"/>
<path fill-rule="evenodd" clip-rule="evenodd" d="M1104 30.0001L0 30L2.62268e-06 0L1104 9.65147e-05V30.0001Z" fill="#E5E5E5"/>
</svg>
