<svg width="1188" height="1045" viewBox="0 0 1188 1045" fill="none" xmlns="http://www.w3.org/2000/svg">
<path d="M143 25C143 11.1929 154.193 0 168 0H368C381.807 0 393 11.1929 393 25V225C393 238.807 381.807 250 368 250H168C154.193 250 143 238.807 143 225V25Z" fill="#26A65B" fill-opacity="0.9"/>
<path d="M143 555C143 541.193 154.193 530 168 530H368C381.807 530 393 541.193 393 555V755C393 768.807 381.807 780 368 780H168C154.193 780 143 768.807 143 755V555Z" fill="#884400"/>
<path d="M143 290C143 276.193 154.193 265 168 265H368C381.807 265 393 276.193 393 290V490C393 503.807 381.807 515 368 515H168C154.193 515 143 503.807 143 490V290Z" fill="#26A65B" fill-opacity="0.9"/>
<path fill-rule="evenodd" clip-rule="evenodd" d="M368 277H168C160.82 277 155 282.82 155 290V490C155 497.18 160.82 503 168 503H368C375.18 503 381 497.18 381 490V290C381 282.82 375.18 277 368 277ZM168 265C154.193 265 143 276.193 143 290V490C143 503.807 154.193 515 168 515H368C381.807 515 393 503.807 393 490V290C393 276.193 381.807 265 368 265H168Z" fill="#FFA800"/>
<path d="M143 820C143 806.193 154.193 795 168 795H368C381.807 795 393 806.193 393 820V1020C393 1033.81 381.807 1045 368 1045H168C154.193 1045 143 1033.81 143 1020V820Z" fill="#26A65B" fill-opacity="0.9"/>
<path fill-rule="evenodd" clip-rule="evenodd" d="M368 807H168C160.82 807 155 812.82 155 820V1020C155 1027.18 160.82 1033 168 1033H368C375.18 1033 381 1027.18 381 1020V820C381 812.82 375.18 807 368 807ZM168 795C154.193 795 143 806.193 143 820V1020C143 1033.81 154.193 1045 168 1045H368C381.807 1045 393 1033.81 393 1020V820C393 806.193 381.807 795 368 795H168Z" fill="#FFA800"/>
<path d="M673 25C673 11.1929 684.193 0 698 0H898C911.807 0 923 11.1929 923 25V225C923 238.807 911.807 250 898 250H698C684.193 250 673 238.807 673 225V25Z" fill="#26A65B" fill-opacity="0.9"/>
<path d="M673 555C673 541.193 684.193 530 698 530H898C911.807 530 923 541.193 923 555V755C923 768.807 911.807 780 898 780H698C684.193 780 673 768.807 673 755V555Z" fill="#F1D693" fill-opacity="0.9"/>
<path d="M673 290C673 276.193 684.193 265 698 265H898C911.807 265 923 276.193 923 290V490C923 503.807 911.807 515 898 515H698C684.193 515 673 503.807 673 490V290Z" fill="#26A65B" fill-opacity="0.9"/>
<path fill-rule="evenodd" clip-rule="evenodd" d="M898 277H698C690.82 277 685 282.82 685 290V490C685 497.18 690.82 503 698 503H898C905.18 503 911 497.18 911 490V290C911 282.82 905.18 277 898 277ZM698 265C684.193 265 673 276.193 673 290V490C673 503.807 684.193 515 698 515H898C911.807 515 923 503.807 923 490V290C923 276.193 911.807 265 898 265H698Z" fill="#FFA800"/>
<path d="M673 820C673 806.193 684.193 795 698 795H898C911.807 795 923 806.193 923 820V1020C923 1033.81 911.807 1045 898 1045H698C684.193 1045 673 1033.81 673 1020V820Z" fill="#884400"/>
<path fill-rule="evenodd" clip-rule="evenodd" d="M898 807H698C690.82 807 685 812.82 685 820V1020C685 1027.18 690.82 1033 698 1033H898C905.18 1033 911 1027.18 911 1020V820C911 812.82 905.18 807 898 807ZM698 795C684.193 795 673 806.193 673 820V1020C673 1033.81 684.193 1045 698 1045H898C911.807 1045 923 1033.81 923 1020V820C923 806.193 911.807 795 898 795H698Z" fill="#FFA800"/>
<path d="M408 25C408 11.1929 419.193 0 433 0H633C646.807 0 658 11.1929 658 25V225C658 238.807 646.807 250 633 250H433C419.193 250 408 238.807 408 225V25Z" fill="#26A65B" fill-opacity="0.9"/>
<path d="M408 555C408 541.193 419.193 530 433 530H633C646.807 530 658 541.193 658 555V755C658 768.807 646.807 780 633 780H433C419.193 780 408 768.807 408 755V555Z" fill="#F1D693" fill-opacity="0.9"/>
<path d="M408 290C408 276.193 419.193 265 433 265H633C646.807 265 658 276.193 658 290V490C658 503.807 646.807 515 633 515H433C419.193 515 408 503.807 408 490V290Z" fill="#26A65B" fill-opacity="0.9"/>
<path fill-rule="evenodd" clip-rule="evenodd" d="M633 277H433C425.82 277 420 282.82 420 290V490C420 497.18 425.82 503 433 503H633C640.18 503 646 497.18 646 490V290C646 282.82 640.18 277 633 277ZM433 265C419.193 265 408 276.193 408 290V490C408 503.807 419.193 515 433 515H633C646.807 515 658 503.807 658 490V290C658 276.193 646.807 265 633 265H433Z" fill="#FFA800"/>
<path d="M408 820C408 806.193 419.193 795 433 795H633C646.807 795 658 806.193 658 820V1020C658 1033.81 646.807 1045 633 1045H433C419.193 1045 408 1033.81 408 1020V820Z" fill="#26A65B" fill-opacity="0.9"/>
<path fill-rule="evenodd" clip-rule="evenodd" d="M633 807H433C425.82 807 420 812.82 420 820V1020C420 1027.18 425.82 1033 433 1033H633C640.18 1033 646 1027.18 646 1020V820C646 812.82 640.18 807 633 807ZM433 795C419.193 795 408 806.193 408 820V1020C408 1033.81 419.193 1045 433 1045H633C646.807 1045 658 1033.81 658 1020V820C658 806.193 646.807 795 633 795H433Z" fill="#FFA800"/>
<path d="M938 25C938 11.1929 949.193 0 963 0H1163C1176.81 0 1188 11.1929 1188 25V225C1188 238.807 1176.81 250 1163 250H963C949.193 250 938 238.807 938 225V25Z" fill="#26A65B" fill-opacity="0.9"/>
<path d="M938 555C938 541.193 949.193 530 963 530H1163C1176.81 530 1188 541.193 1188 555V755C1188 768.807 1176.81 780 1163 780H963C949.193 780 938 768.807 938 755V555Z" fill="#F1D693" fill-opacity="0.9"/>
<path d="M938 290C938 276.193 949.193 265 963 265H1163C1176.81 265 1188 276.193 1188 290V490C1188 503.807 1176.81 515 1163 515H963C949.193 515 938 503.807 938 490V290Z" fill="#F1D693" fill-opacity="0.9"/>
<path fill-rule="evenodd" clip-rule="evenodd" d="M1163 277H963C955.82 277 950 282.82 950 290V490C950 497.18 955.82 503 963 503H1163C1170.18 503 1176 497.18 1176 490V290C1176 282.82 1170.18 277 1163 277ZM963 265C949.193 265 938 276.193 938 290V490C938 503.807 949.193 515 963 515H1163C1176.81 515 1188 503.807 1188 490V290C1188 276.193 1176.81 265 1163 265H963Z" fill="#FFA800"/>
<path d="M938 820C938 806.193 949.193 795 963 795H1163C1176.81 795 1188 806.193 1188 820V1020C1188 1033.81 1176.81 1045 1163 1045H963C949.193 1045 938 1033.81 938 1020V820Z" fill="#26A65B" fill-opacity="0.9"/>
<path fill-rule="evenodd" clip-rule="evenodd" d="M1163 807H963C955.82 807 950 812.82 950 820V1020C950 1027.18 955.82 1033 963 1033H1163C1170.18 1033 1176 1027.18 1176 1020V820C1176 812.82 1170.18 807 1163 807ZM963 795C949.193 795 938 806.193 938 820V1020C938 1033.81 949.193 1045 963 1045H1163C1176.81 1045 1188 1033.81 1188 1020V820C1188 806.193 1176.81 795 1163 795H963Z" fill="#FFA800"/>
<path d="M66.858 441.636V369.636H81.1762V378.432H81.8239C82.4603 377.023 83.3807 375.591 84.5853 374.136C85.8125 372.659 87.4034 371.432 89.358 370.455C91.3353 369.455 93.7898 368.955 96.7216 368.955C100.54 368.955 104.063 369.955 107.29 371.955C110.517 373.932 113.097 376.92 115.028 380.92C116.96 384.898 117.926 389.886 117.926 395.886C117.926 401.727 116.983 406.659 115.097 410.682C113.233 414.682 110.688 417.716 107.46 419.784C104.256 421.83 100.665 422.852 96.6875 422.852C93.8693 422.852 91.4716 422.386 89.4943 421.455C87.5398 420.523 85.9375 419.352 84.6875 417.943C83.4375 416.511 82.483 415.068 81.8239 413.614H81.3807V441.636H66.858ZM81.0739 395.818C81.0739 398.932 81.5057 401.648 82.3693 403.966C83.233 406.284 84.483 408.091 86.1193 409.386C87.7557 410.659 89.7443 411.295 92.0853 411.295C94.4489 411.295 96.4489 410.648 98.0853 409.352C99.7216 408.034 100.96 406.216 101.801 403.898C102.665 401.557 103.097 398.864 103.097 395.818C103.097 392.795 102.676 390.136 101.835 387.841C100.994 385.545 99.7557 383.75 98.1193 382.455C96.483 381.159 94.4716 380.511 92.0853 380.511C89.7216 380.511 87.7216 381.136 86.0853 382.386C84.4716 383.636 83.233 385.409 82.3693 387.705C81.5057 390 81.0739 392.705 81.0739 395.818Z" fill="#FFA800"/>
<path d="M0.602295 409.727V398.102L29.75 352.182H39.7728V368.273H33.8409L15.4659 397.352V397.898H56.8864V409.727H0.602295ZM34.1137 422V406.182L34.3864 401.034V352.182H48.2273V422H34.1137Z" fill="#FFA800"/>
<path d="M66.858 971.636V899.636H81.1762V908.432H81.8239C82.4603 907.023 83.3807 905.591 84.5853 904.136C85.8125 902.659 87.4034 901.432 89.358 900.455C91.3353 899.455 93.7898 898.955 96.7216 898.955C100.54 898.955 104.063 899.955 107.29 901.955C110.517 903.932 113.097 906.92 115.028 910.92C116.96 914.898 117.926 919.886 117.926 925.886C117.926 931.727 116.983 936.659 115.097 940.682C113.233 944.682 110.688 947.716 107.46 949.784C104.256 951.83 100.665 952.852 96.6875 952.852C93.8693 952.852 91.4716 952.386 89.4943 951.455C87.5398 950.523 85.9375 949.352 84.6875 947.943C83.4375 946.511 82.483 945.068 81.8239 943.614H81.3807V971.636H66.858ZM81.0739 925.818C81.0739 928.932 81.5057 931.648 82.3693 933.966C83.233 936.284 84.483 938.091 86.1193 939.386C87.7557 940.659 89.7443 941.295 92.0853 941.295C94.4489 941.295 96.4489 940.648 98.0853 939.352C99.7216 938.034 100.96 936.216 101.801 933.898C102.665 931.557 103.097 928.864 103.097 925.818C103.097 922.795 102.676 920.136 101.835 917.841C100.994 915.545 99.7557 913.75 98.1193 912.455C96.483 911.159 94.4716 910.511 92.0853 910.511C89.7216 910.511 87.7216 911.136 86.0853 912.386C84.4716 913.636 83.233 915.409 82.3693 917.705C81.5057 920 81.0739 922.705 81.0739 925.818Z" fill="#FFA800"/>
<path d="M0.602295 939.727V928.102L29.75 882.182H39.7728V898.273H33.8409L15.4659 927.352V927.898H56.8864V939.727H0.602295ZM34.1137 952V936.182L34.3864 931.034V882.182H48.2273V952H34.1137Z" fill="#FFA800"/>
</svg>
