<svg width="1045" height="1153" viewBox="0 0 1045 1153" fill="none" xmlns="http://www.w3.org/2000/svg">
<path d="M1020 107.999C1033.81 107.999 1045 119.192 1045 132.999L1045 332.999C1045 346.806 1033.81 357.999 1020 357.999L820 357.999C806.193 357.999 795 346.806 795 332.999L795 132.999C795 119.192 806.193 107.999 820 107.999L1020 107.999Z" fill="#884400"/>
<path d="M490 107.999C503.807 107.999 515 119.192 515 132.999L515 332.999C515 346.806 503.807 357.999 490 357.999L290 357.999C276.193 357.999 265 346.806 265 332.999L265 132.999C265 119.192 276.193 107.999 290 107.999L490 107.999Z" fill="#26A65B" fill-opacity="0.9"/>
<path d="M755 107.999C768.807 107.999 780 119.192 780 132.999L780 332.999C780 346.806 768.807 357.999 755 357.999L555 357.999C541.193 357.999 530 346.806 530 332.999L530 132.999C530 119.192 541.193 107.999 555 107.999L755 107.999Z" fill="#E8472E"/>
<path fill-rule="evenodd" clip-rule="evenodd" d="M768 332.999L768 132.999C768 125.819 762.18 119.999 755 119.999L555 119.999C547.82 119.999 542 125.819 542 132.999L542 332.999C542 340.179 547.82 345.999 555 345.999L755 345.999C762.18 345.999 768 340.179 768 332.999ZM780 132.999C780 119.192 768.807 107.999 755 107.999L555 107.999C541.193 107.999 530 119.192 530 132.999L530 332.999C530 346.806 541.193 357.999 555 357.999L755 357.999C768.807 357.999 780 346.806 780 332.999L780 132.999Z" fill="#FFA800"/>
<path d="M225 107.999C238.807 107.999 250 119.192 250 132.999L250 332.999C250 346.806 238.807 357.999 225 357.999L25 357.999C11.1929 357.999 -1.04386e-05 346.806 -9.83506e-06 332.999L-1.09278e-06 132.999C-4.89257e-07 119.192 11.1929 107.999 25 107.999L225 107.999Z" fill="#259855"/>
<path fill-rule="evenodd" clip-rule="evenodd" d="M238 332.999L238 132.999C238 125.819 232.18 119.999 225 119.999L25 119.999C17.8203 119.999 12 125.819 12 132.999L12 332.999C12 340.179 17.8203 345.999 25 345.999L225 345.999C232.18 345.999 238 340.179 238 332.999ZM250 132.999C250 119.192 238.807 107.999 225 107.999L25 107.999C11.1929 107.999 -4.89257e-07 119.192 -1.09278e-06 132.999L-9.83506e-06 332.999C-1.04386e-05 346.806 11.1929 357.999 25 357.999L225 357.999C238.807 357.999 250 346.806 250 332.999L250 132.999Z" fill="#FFA800"/>
<path d="M1020 638C1033.81 638 1045 649.193 1045 663L1045 863C1045 876.807 1033.81 888 1020 888L820 888C806.193 888 795 876.807 795 863L795 663C795 649.193 806.193 638 820 638L1020 638Z" fill="#F1D693" fill-opacity="0.9"/>
<path d="M490 637.999C503.807 637.999 515 649.192 515 662.999L515 862.999C515 876.806 503.807 887.999 490 887.999L290 887.999C276.193 887.999 265 876.806 265 862.999L265 662.999C265 649.192 276.193 637.999 290 637.999L490 637.999Z" fill="#E8472E"/>
<path d="M755 637.999C768.807 637.999 780 649.192 780 662.999L780 862.999C780 876.806 768.807 887.999 755 887.999L555 887.999C541.193 887.999 530 876.806 530 862.999L530 662.999C530 649.192 541.193 637.999 555 637.999L755 637.999Z" fill="#067FE8"/>
<path fill-rule="evenodd" clip-rule="evenodd" d="M768 862.999L768 662.999C768 655.819 762.18 649.999 755 649.999L555 649.999C547.82 649.999 542 655.819 542 662.999L542 862.999C542 870.179 547.82 875.999 555 875.999L755 875.999C762.18 875.999 768 870.179 768 862.999ZM780 662.999C780 649.192 768.807 637.999 755 637.999L555 637.999C541.193 637.999 530 649.192 530 662.999L530 862.999C530 876.806 541.193 887.999 555 887.999L755 887.999C768.807 887.999 780 876.806 780 862.999L780 662.999Z" fill="#FFA800"/>
<path d="M225 637.999C238.807 637.999 250 649.192 250 662.999L250 862.999C250 876.806 238.807 887.999 225 887.999L25 887.999C11.1929 887.999 -1.04386e-05 876.806 -9.83506e-06 862.999L-1.09278e-06 662.999C-4.89257e-07 649.192 11.1929 637.999 25 637.999L225 637.999Z" fill="#884400"/>
<path fill-rule="evenodd" clip-rule="evenodd" d="M238 862.999L238 662.999C238 655.819 232.18 649.999 225 649.999L25 649.999C17.8203 649.999 12 655.819 12 662.999L12 862.999C12 870.179 17.8203 875.999 25 875.999L225 875.999C232.18 875.999 238 870.179 238 862.999ZM250 662.999C250 649.192 238.807 637.999 225 637.999L25 637.999C11.1929 637.999 -4.89257e-07 649.192 -1.09278e-06 662.999L-9.83506e-06 862.999C-1.04386e-05 876.806 11.1929 887.999 25 887.999L225 887.999C238.807 887.999 250 876.806 250 862.999L250 662.999Z" fill="#FFA800"/>
<path d="M1020 373C1033.81 373 1045 384.193 1045 398L1045 598C1045 611.807 1033.81 623 1020 623L820 623C806.193 623 795 611.807 795 598L795 398C795 384.193 806.193 373 820 373L1020 373Z" fill="#FF4C30" fill-opacity="0.9"/>
<path d="M490 373C503.807 373 515 384.193 515 398L515 598C515 611.807 503.807 623 490 623L290 623C276.193 623 265 611.807 265 598L265 398C265 384.193 276.193 373 290 373L490 373Z" fill="#26A65B" fill-opacity="0.9"/>
<path d="M755 373C768.807 373 780 384.193 780 398L780 598C780 611.807 768.807 623 755 623L555 623C541.193 623 530 611.807 530 598L530 398C530 384.193 541.193 373 555 373L755 373Z" fill="#E8472E"/>
<path fill-rule="evenodd" clip-rule="evenodd" d="M768 598L768 398C768 390.82 762.18 385 755 385L555 385C547.82 385 542 390.82 542 398L542 598C542 605.18 547.82 611 555 611L755 611C762.18 611 768 605.18 768 598ZM780 398C780 384.193 768.807 373 755 373L555 373C541.193 373 530 384.193 530 398L530 598C530 611.807 541.193 623 555 623L755 623C768.807 623 780 611.807 780 598L780 398Z" fill="#FFA800"/>
<path d="M225 373C238.807 373 250 384.193 250 398L250 598C250 611.807 238.807 623 225 623L25 623C11.1929 623 -1.04386e-05 611.807 -9.83506e-06 598L-1.09278e-06 398C-4.89257e-07 384.193 11.1929 373 25 373L225 373Z" fill="#259855"/>
<path fill-rule="evenodd" clip-rule="evenodd" d="M238 598L238 398C238 390.82 232.18 385 225 385L25 385C17.8203 385 12 390.82 12 398L12 598C12 605.18 17.8203 611 25 611L225 611C232.18 611 238 605.18 238 598ZM250 398C250 384.193 238.807 373 225 373L25 373C11.1929 373 -4.89257e-07 384.193 -1.09278e-06 398L-9.83506e-06 598C-1.04386e-05 611.807 11.1929 623 25 623L225 623C238.807 623 250 611.807 250 598L250 398Z" fill="#FFA800"/>
<path d="M1020 902.999C1033.81 902.999 1045 914.192 1045 927.999L1045 1128C1045 1141.81 1033.81 1153 1020 1153L820 1153C806.193 1153 795 1141.81 795 1128L795 927.999C795 914.192 806.193 902.999 820 902.999L1020 902.999Z" fill="#884400"/>
<path d="M490 902.999C503.807 902.999 515 914.192 515 927.999L515 1128C515 1141.81 503.807 1153 490 1153L290 1153C276.193 1153 265 1141.81 265 1128L265 927.999C265 914.192 276.193 902.999 290 902.999L490 902.999Z" fill="#E8472E"/>
<path d="M755 902.999C768.807 902.999 780 914.192 780 927.999L780 1128C780 1141.81 768.807 1153 755 1153L555 1153C541.193 1153 530 1141.81 530 1128L530 927.999C530 914.192 541.193 902.999 555 902.999L755 902.999Z" fill="#038AFF" fill-opacity="0.9"/>
<path fill-rule="evenodd" clip-rule="evenodd" d="M768 1128L768 927.999C768 920.819 762.18 914.999 755 914.999L555 914.999C547.82 914.999 542 920.819 542 927.999L542 1128C542 1135.18 547.82 1141 555 1141L755 1141C762.18 1141 768 1135.18 768 1128ZM780 927.999C780 914.192 768.807 902.999 755 902.999L555 902.999C541.193 902.999 530 914.192 530 927.999L530 1128C530 1141.81 541.193 1153 555 1153L755 1153C768.807 1153 780 1141.81 780 1128L780 927.999Z" fill="#FFA800"/>
<path d="M225 902.999C238.807 902.999 250 914.192 250 927.999L250 1128C250 1141.81 238.807 1153 225 1153L25 1153C11.1929 1153 -1.04386e-05 1141.81 -9.83506e-06 1128L-1.09278e-06 927.999C-4.89257e-07 914.192 11.1929 902.999 25 902.999L225 902.999Z" fill="#E8472E"/>
<path fill-rule="evenodd" clip-rule="evenodd" d="M238 1128L238 927.999C238 920.819 232.18 914.999 225 914.999L25 914.999C17.8203 914.999 12 920.819 12 927.999L12 1128C12 1135.18 17.8203 1141 25 1141L225 1141C232.18 1141 238 1135.18 238 1128ZM250 927.999C250 914.192 238.807 902.999 225 902.999L25 902.999C11.1929 902.999 -4.89257e-07 914.192 -1.09278e-06 927.999L-9.83506e-06 1128C-1.04386e-05 1141.81 11.1929 1153 25 1153L225 1153C238.807 1153 250 1141.81 250 1128L250 927.999Z" fill="#FFA800"/>
<path d="M687.564 68.9598C684.428 68.9598 681.548 68.3518 678.924 67.1358C676.3 65.9198 674.156 64.2558 672.492 62.1438C670.828 59.9678 669.868 57.5038 669.612 54.7518V35.0718C669.868 32.3198 670.828 29.8238 672.492 27.5838C674.156 25.3438 676.3 23.5838 678.924 22.3038C681.548 21.0238 684.428 20.3838 687.564 20.3838C691.98 20.3838 695.884 21.4398 699.276 23.5518C702.732 25.6638 705.42 28.5438 707.34 32.1918C709.324 35.8398 710.316 39.9998 710.316 44.6718C710.316 49.3438 709.324 53.5038 707.34 57.1518C705.42 60.7998 702.732 63.6798 699.276 65.7918C695.884 67.9038 691.98 68.9598 687.564 68.9598ZM684.876 55.7118C686.988 55.7118 688.812 55.2318 690.348 54.2718C691.948 53.3118 693.196 51.9998 694.092 50.3358C694.988 48.6718 695.436 46.7838 695.436 44.6718C695.436 42.4958 694.988 40.5758 694.092 38.9118C693.196 37.2478 691.948 35.9678 690.348 35.0718C688.812 34.1118 687.02 33.6318 684.972 33.6318C682.924 33.6318 681.1 34.1118 679.5 35.0718C677.964 35.9678 676.748 37.2478 675.852 38.9118C674.956 40.5758 674.508 42.4958 674.508 44.6718C674.508 46.7838 674.924 48.6718 675.756 50.3358C676.652 51.9998 677.9 53.3118 679.5 54.2718C681.1 55.2318 682.892 55.7118 684.876 55.7118ZM660.684 87.6798V21.3438H675.372V33.3438L672.972 44.6718L675.18 55.9998V87.6798H660.684Z" fill="#FFA800"/>
<path d="M599.016 44.4796L621.288 0.223633H637.704L614.952 44.4796H599.016ZM599.016 52.9276V44.4796L604.008 40.1596H653.352V52.9276H599.016ZM630.984 67.9996V26.0476H645.768V67.9996H630.984Z" fill="#FFA800"/>
<path d="M157.564 68.9598C154.428 68.9598 151.548 68.3518 148.924 67.1358C146.3 65.9198 144.156 64.2558 142.492 62.1438C140.828 59.9678 139.868 57.5038 139.612 54.7518V35.0718C139.868 32.3198 140.828 29.8238 142.492 27.5838C144.156 25.3438 146.3 23.5838 148.924 22.3038C151.548 21.0238 154.428 20.3838 157.564 20.3838C161.98 20.3838 165.884 21.4398 169.276 23.5518C172.732 25.6638 175.42 28.5438 177.34 32.1918C179.324 35.8398 180.316 39.9998 180.316 44.6718C180.316 49.3438 179.324 53.5038 177.34 57.1518C175.42 60.7998 172.732 63.6798 169.276 65.7918C165.884 67.9038 161.98 68.9598 157.564 68.9598ZM154.876 55.7118C156.988 55.7118 158.812 55.2318 160.348 54.2718C161.948 53.3118 163.196 51.9998 164.092 50.3358C164.988 48.6718 165.436 46.7838 165.436 44.6718C165.436 42.4958 164.988 40.5758 164.092 38.9118C163.196 37.2478 161.948 35.9678 160.348 35.0718C158.812 34.1118 157.02 33.6318 154.972 33.6318C152.924 33.6318 151.1 34.1118 149.5 35.0718C147.964 35.9678 146.748 37.2478 145.852 38.9118C144.956 40.5758 144.508 42.4958 144.508 44.6718C144.508 46.7838 144.924 48.6718 145.756 50.3358C146.652 51.9998 147.9 53.3118 149.5 54.2718C151.1 55.2318 152.892 55.7118 154.876 55.7118ZM130.684 87.6798V21.3438H145.372V33.3438L142.972 44.6718L145.18 55.9998V87.6798H130.684Z" fill="#FFA800"/>
<path d="M69.0159 44.4796L91.2879 0.223633H107.704L84.9519 44.4796H69.0159ZM69.0159 52.9276V44.4796L74.0079 40.1596H123.352V52.9276H69.0159ZM100.984 67.9996V26.0476H115.768V67.9996H100.984Z" fill="#FFA800"/>
</svg>
