<svg width="1159" height="1034" viewBox="0 0 1159 1034" fill="none" xmlns="http://www.w3.org/2000/svg">
<path d="M125.339 234.1C125.339 220.292 136.532 209.1 150.339 209.1L297.602 209.1C311.41 209.1 322.602 220.292 322.602 234.1V381.363C322.602 395.17 311.41 406.363 297.602 406.363H150.339C136.532 406.363 125.339 395.17 125.339 381.363L125.339 234.1Z" fill="#DCC487"/>
<path d="M124.944 25C124.944 11.1929 136.137 0 149.944 0L297.208 0C311.015 0 322.208 11.1929 322.208 25V172.264C322.208 186.071 311.015 197.264 297.208 197.264L149.944 197.264C136.137 197.264 124.944 186.071 124.944 172.264L124.944 25Z" fill="#DCC487"/>
<path d="M125.339 652.298C125.339 638.491 136.532 627.298 150.339 627.298H297.602C311.41 627.298 322.602 638.491 322.602 652.298V799.561C322.602 813.369 311.41 824.561 297.602 824.561H150.339C136.532 824.561 125.339 813.369 125.339 799.561L125.339 652.298Z" fill="#E8472E"/>
<path d="M125.339 443.199C125.339 429.392 136.532 418.199 150.339 418.199H297.602C311.41 418.199 322.602 429.392 322.602 443.199V590.463C322.602 604.27 311.41 615.463 297.602 615.463H150.339C136.532 615.463 125.339 604.27 125.339 590.463L125.339 443.199Z" fill="#884400"/>
<path d="M125.339 861.397C125.339 847.59 136.532 836.397 150.339 836.397H297.602C311.41 836.397 322.602 847.59 322.602 861.397V1008.66C322.602 1022.47 311.41 1033.66 297.602 1033.66H150.339C136.532 1033.66 125.339 1022.47 125.339 1008.66L125.339 861.397Z" fill="#E8472E"/>
<path fill-rule="evenodd" clip-rule="evenodd" d="M297.602 848.397H150.339C143.159 848.397 137.339 854.218 137.339 861.397L137.339 1008.66C137.339 1015.84 143.159 1021.66 150.339 1021.66H297.602C304.782 1021.66 310.602 1015.84 310.602 1008.66V861.397C310.602 854.218 304.782 848.397 297.602 848.397ZM150.339 836.397C136.532 836.397 125.339 847.59 125.339 861.397L125.339 1008.66C125.339 1022.47 136.532 1033.66 150.339 1033.66H297.602C311.41 1033.66 322.602 1022.47 322.602 1008.66V861.397C322.602 847.59 311.41 836.397 297.602 836.397H150.339Z" fill="#FFA800"/>
<path d="M543.538 234.1C543.538 220.292 554.73 209.1 568.538 209.1L715.801 209.1C729.608 209.1 740.801 220.292 740.801 234.1V381.363C740.801 395.17 729.608 406.363 715.801 406.363H568.538C554.73 406.363 543.538 395.17 543.538 381.363V234.1Z" fill="#E8472E"/>
<path d="M543.143 25C543.143 11.1929 554.336 0 568.143 0L715.407 0C729.214 0 740.407 11.1929 740.407 25V172.264C740.407 186.071 729.214 197.264 715.407 197.264L568.143 197.264C554.336 197.264 543.143 186.071 543.143 172.264V25Z" fill="#E8472E"/>
<path d="M543.538 652.298C543.538 638.491 554.73 627.298 568.538 627.298H715.801C729.608 627.298 740.801 638.491 740.801 652.298V799.561C740.801 813.369 729.608 824.561 715.801 824.561H568.538C554.73 824.561 543.538 813.369 543.538 799.561V652.298Z" fill="#067FE8"/>
<path d="M543.538 443.199C543.538 429.392 554.73 418.199 568.538 418.199H715.801C729.608 418.199 740.801 429.392 740.801 443.199V590.463C740.801 604.27 729.608 615.463 715.801 615.463H568.538C554.73 615.463 543.538 604.27 543.538 590.463V443.199Z" fill="#067FE8"/>
<path d="M543.538 861.397C543.538 847.59 554.73 836.397 568.538 836.397H715.801C729.608 836.397 740.801 847.59 740.801 861.397V1008.66C740.801 1022.47 729.608 1033.66 715.801 1033.66H568.538C554.73 1033.66 543.538 1022.47 543.538 1008.66V861.397Z" fill="#067FE8"/>
<path fill-rule="evenodd" clip-rule="evenodd" d="M715.801 848.397H568.538C561.358 848.397 555.538 854.218 555.538 861.397V1008.66C555.538 1015.84 561.358 1021.66 568.538 1021.66H715.801C722.981 1021.66 728.801 1015.84 728.801 1008.66V861.397C728.801 854.218 722.981 848.397 715.801 848.397ZM568.538 836.397C554.73 836.397 543.538 847.59 543.538 861.397V1008.66C543.538 1022.47 554.73 1033.66 568.538 1033.66H715.801C729.608 1033.66 740.801 1022.47 740.801 1008.66V861.397C740.801 847.59 729.608 836.397 715.801 836.397H568.538Z" fill="#FFA800"/>
<path d="M334.438 234.1C334.438 220.292 345.631 209.1 359.438 209.1L506.702 209.1C520.509 209.1 531.702 220.292 531.702 234.1V381.363C531.702 395.17 520.509 406.363 506.702 406.363H359.438C345.631 406.363 334.438 395.17 334.438 381.363V234.1Z" fill="#92A643"/>
<path d="M334.044 25C334.044 11.1929 345.237 0 359.044 0L506.308 0C520.115 0 531.308 11.1929 531.308 25V172.264C531.308 186.071 520.115 197.264 506.308 197.264L359.044 197.264C345.237 197.264 334.044 186.071 334.044 172.264V25Z" fill="#DCC487"/>
<path d="M334.438 652.298C334.438 638.491 345.631 627.298 359.438 627.298H506.702C520.509 627.298 531.702 638.491 531.702 652.298V799.561C531.702 813.369 520.509 824.561 506.702 824.561H359.438C345.631 824.561 334.438 813.369 334.438 799.561V652.298Z" fill="#92A643"/>
<path d="M334.438 443.199C334.438 429.392 345.631 418.199 359.438 418.199H506.702C520.509 418.199 531.702 429.392 531.702 443.199V590.463C531.702 604.27 520.509 615.463 506.702 615.463H359.438C345.631 615.463 334.438 604.27 334.438 590.463V443.199Z" fill="#92A643"/>
<path d="M334.438 861.397C334.438 847.59 345.631 836.397 359.438 836.397H506.702C520.509 836.397 531.702 847.59 531.702 861.397V1008.66C531.702 1022.47 520.509 1033.66 506.702 1033.66H359.438C345.631 1033.66 334.438 1022.47 334.438 1008.66V861.397Z" fill="#92A643"/>
<path fill-rule="evenodd" clip-rule="evenodd" d="M506.702 848.397H359.438C352.259 848.397 346.438 854.218 346.438 861.397V1008.66C346.438 1015.84 352.259 1021.66 359.438 1021.66H506.702C513.882 1021.66 519.702 1015.84 519.702 1008.66V861.397C519.702 854.218 513.882 848.397 506.702 848.397ZM359.438 836.397C345.631 836.397 334.438 847.59 334.438 861.397V1008.66C334.438 1022.47 345.631 1033.66 359.438 1033.66H506.702C520.509 1033.66 531.702 1022.47 531.702 1008.66V861.397C531.702 847.59 520.509 836.397 506.702 836.397H359.438Z" fill="#FFA800"/>
<path d="M752.637 234.1C752.637 220.292 763.83 209.1 777.637 209.1L924.901 209.1C938.708 209.1 949.901 220.292 949.901 234.1V381.363C949.901 395.17 938.708 406.363 924.901 406.363H777.637C763.83 406.363 752.637 395.17 752.637 381.363V234.1Z" fill="#E8472E"/>
<path d="M752.242 25C752.242 11.1929 763.435 0 777.242 0L924.506 0C938.313 0 949.506 11.1929 949.506 25V172.264C949.506 186.071 938.313 197.264 924.506 197.264L777.242 197.264C763.435 197.264 752.242 186.071 752.242 172.264V25Z" fill="#884400"/>
<path d="M961.736 234.1C961.736 220.292 972.929 209.1 986.736 209.1L1134 209.1C1147.81 209.1 1159 220.292 1159 234.1V381.363C1159 395.17 1147.81 406.363 1134 406.363H986.736C972.929 406.363 961.736 395.17 961.736 381.363V234.1Z" fill="#E8472E"/>
<path d="M961.342 25C961.342 11.1929 972.535 0 986.342 0L1133.61 0C1147.41 0 1158.61 11.1929 1158.61 25V172.264C1158.61 186.071 1147.41 197.264 1133.61 197.264L986.342 197.264C972.535 197.264 961.342 186.071 961.342 172.264V25Z" fill="#067FE8"/>
<path d="M752.637 652.298C752.637 638.491 763.83 627.298 777.637 627.298H924.901C938.708 627.298 949.901 638.491 949.901 652.298V799.561C949.901 813.369 938.708 824.561 924.901 824.561H777.637C763.83 824.561 752.637 813.369 752.637 799.561V652.298Z" fill="#26A65B" fill-opacity="0.9"/>
<path d="M961.736 652.298C961.736 638.491 972.929 627.298 986.736 627.298H1134C1147.81 627.298 1159 638.491 1159 652.298V799.561C1159 813.369 1147.81 824.561 1134 824.561H986.736C972.929 824.561 961.736 813.369 961.736 799.561V652.298Z" fill="#259855"/>
<path d="M752.637 443.199C752.637 429.392 763.83 418.199 777.637 418.199H924.901C938.708 418.199 949.901 429.392 949.901 443.199V590.463C949.901 604.27 938.708 615.463 924.901 615.463H777.637C763.83 615.463 752.637 604.27 752.637 590.463V443.199Z" fill="#E8472E"/>
<path d="M961.736 443.199C961.736 429.392 972.929 418.199 986.736 418.199H1134C1147.81 418.199 1159 429.392 1159 443.199V590.463C1159 604.27 1147.81 615.463 1134 615.463H986.736C972.929 615.463 961.736 604.27 961.736 590.463V443.199Z" fill="#E8472E"/>
<path d="M752.637 861.397C752.637 847.59 763.83 836.397 777.637 836.397H924.901C938.708 836.397 949.901 847.59 949.901 861.397V1008.66C949.901 1022.47 938.708 1033.66 924.901 1033.66H777.637C763.83 1033.66 752.637 1022.47 752.637 1008.66V861.397Z" fill="#259855"/>
<path fill-rule="evenodd" clip-rule="evenodd" d="M924.901 848.397H777.637C770.457 848.397 764.637 854.218 764.637 861.397V1008.66C764.637 1015.84 770.457 1021.66 777.637 1021.66H924.901C932.08 1021.66 937.901 1015.84 937.901 1008.66V861.397C937.901 854.218 932.08 848.397 924.901 848.397ZM777.637 836.397C763.83 836.397 752.637 847.59 752.637 861.397V1008.66C752.637 1022.47 763.83 1033.66 777.637 1033.66H924.901C938.708 1033.66 949.901 1022.47 949.901 1008.66V861.397C949.901 847.59 938.708 836.397 924.901 836.397H777.637Z" fill="#FFA800"/>
<path d="M961.736 861.397C961.736 847.59 972.929 836.397 986.736 836.397H1134C1147.81 836.397 1159 847.59 1159 861.397V1008.66C1159 1022.47 1147.81 1033.66 1134 1033.66H986.736C972.929 1033.66 961.736 1022.47 961.736 1008.66V861.397Z" fill="#884400"/>
<path fill-rule="evenodd" clip-rule="evenodd" d="M1134 848.397H986.736C979.557 848.397 973.736 854.218 973.736 861.397V1008.66C973.736 1015.84 979.557 1021.66 986.736 1021.66H1134C1141.18 1021.66 1147 1015.84 1147 1008.66V861.397C1147 854.218 1141.18 848.397 1134 848.397ZM986.736 836.397C972.929 836.397 961.736 847.59 961.736 861.397V1008.66C961.736 1022.47 972.929 1033.66 986.736 1033.66H1134C1147.81 1033.66 1159 1022.47 1159 1008.66V861.397C1159 847.59 1147.81 836.397 1134 836.397H986.736Z" fill="#FFA800"/>
<path d="M88.564 970.96C85.428 970.96 82.548 970.352 79.924 969.136C77.3 967.92 75.156 966.256 73.492 964.144C71.828 961.968 70.868 959.504 70.612 956.752V937.072C70.868 934.32 71.828 931.824 73.492 929.584C75.156 927.344 77.3 925.584 79.924 924.304C82.548 923.024 85.428 922.384 88.564 922.384C92.98 922.384 96.884 923.44 100.276 925.552C103.732 927.664 106.42 930.544 108.34 934.192C110.324 937.84 111.316 942 111.316 946.672C111.316 951.344 110.324 955.504 108.34 959.152C106.42 962.8 103.732 965.68 100.276 967.792C96.884 969.904 92.98 970.96 88.564 970.96ZM85.876 957.712C87.988 957.712 89.812 957.232 91.348 956.272C92.948 955.312 94.196 954 95.092 952.336C95.988 950.672 96.436 948.784 96.436 946.672C96.436 944.496 95.988 942.576 95.092 940.912C94.196 939.248 92.948 937.968 91.348 937.072C89.812 936.112 88.02 935.632 85.972 935.632C83.924 935.632 82.1 936.112 80.5 937.072C78.964 937.968 77.748 939.248 76.852 940.912C75.956 942.576 75.508 944.496 75.508 946.672C75.508 948.784 75.924 950.672 76.756 952.336C77.652 954 78.9 955.312 80.5 956.272C82.1 957.232 83.892 957.712 85.876 957.712ZM61.684 989.68L61.684 923.344H76.372V935.344L73.972 946.672L76.18 958L76.18 989.68H61.684Z" fill="#FFA800"/>
<path d="M0.0159912 946.48L22.288 902.224H38.704L15.952 946.48H0.0159912ZM0.0159912 954.928L0.0159912 946.48L5.00799 942.16H54.352V954.928H0.0159912ZM31.984 970L31.984 928.048H46.768L46.768 970H31.984Z" fill="#FFA800"/>
</svg>
