<svg width="1045" height="1045" viewBox="0 0 1045 1045" fill="none" xmlns="http://www.w3.org/2000/svg">
<path d="M0 25C0 11.1929 11.1929 0 25 0H225C238.807 0 250 11.1929 250 25V225C250 238.807 238.807 250 225 250H25C11.1929 250 0 238.807 0 225V25Z" fill="#038AFF" fill-opacity="0.9"/>
<path d="M0 555C0 541.193 11.1929 530 25 530H225C238.807 530 250 541.193 250 555V755C250 768.807 238.807 780 225 780H25C11.1929 780 0 768.807 0 755V555Z" fill="#884400"/>
<path d="M0 290C0 276.193 11.1929 265 25 265H225C238.807 265 250 276.193 250 290V490C250 503.807 238.807 515 225 515H25C11.1929 515 0 503.807 0 490V290Z" fill="#038AFF" fill-opacity="0.9"/>
<path fill-rule="evenodd" clip-rule="evenodd" d="M225 277H25C17.8203 277 12 282.82 12 290V490C12 497.18 17.8203 503 25 503H225C232.18 503 238 497.18 238 490V290C238 282.82 232.18 277 225 277ZM25 265C11.1929 265 0 276.193 0 290V490C0 503.807 11.1929 515 25 515H225C238.807 515 250 503.807 250 490V290C250 276.193 238.807 265 225 265H25Z" fill="#FFA800"/>
<path d="M0 820C0 806.193 11.1929 795 25 795H225C238.807 795 250 806.193 250 820V1020C250 1033.81 238.807 1045 225 1045H25C11.1929 1045 0 1033.81 0 1020V820Z" fill="#F1D693" fill-opacity="0.9"/>
<path d="M530 25C530 11.1929 541.193 0 555 0H755C768.807 0 780 11.1929 780 25V225C780 238.807 768.807 250 755 250H555C541.193 250 530 238.807 530 225V25Z" fill="#038AFF" fill-opacity="0.9"/>
<path fill-rule="evenodd" clip-rule="evenodd" d="M755 12H555C547.82 12 542 17.8203 542 25V225C542 232.18 547.82 238 555 238H755C762.18 238 768 232.18 768 225V25C768 17.8203 762.18 12 755 12ZM555 0C541.193 0 530 11.1929 530 25V225C530 238.807 541.193 250 555 250H755C768.807 250 780 238.807 780 225V25C780 11.1929 768.807 0 755 0H555Z" fill="#FFA800"/>
<path d="M530 555C530 541.193 541.193 530 555 530H755C768.807 530 780 541.193 780 555V755C780 768.807 768.807 780 755 780H555C541.193 780 530 768.807 530 755V555Z" fill="#92A643"/>
<path d="M530 290C530 276.193 541.193 265 555 265H755C768.807 265 780 276.193 780 290V490C780 503.807 768.807 515 755 515H555C541.193 515 530 503.807 530 490V290Z" fill="#92A643"/>
<path d="M530 820C530 806.193 541.193 795 555 795H755C768.807 795 780 806.193 780 820V1020C780 1033.81 768.807 1045 755 1045H555C541.193 1045 530 1033.81 530 1020V820Z" fill="#038AFF" fill-opacity="0.9"/>
<path fill-rule="evenodd" clip-rule="evenodd" d="M755 807H555C547.82 807 542 812.82 542 820V1020C542 1027.18 547.82 1033 555 1033H755C762.18 1033 768 1027.18 768 1020V820C768 812.82 762.18 807 755 807ZM555 795C541.193 795 530 806.193 530 820V1020C530 1033.81 541.193 1045 555 1045H755C768.807 1045 780 1033.81 780 1020V820C780 806.193 768.807 795 755 795H555Z" fill="#FFA800"/>
<path d="M265 25C265 11.1929 276.193 0 290 0H490C503.807 0 515 11.1929 515 25V225C515 238.807 503.807 250 490 250H290C276.193 250 265 238.807 265 225V25Z" fill="#038AFF" fill-opacity="0.9"/>
<path fill-rule="evenodd" clip-rule="evenodd" d="M490 12H290C282.82 12 277 17.8203 277 25V225C277 232.18 282.82 238 290 238H490C497.18 238 503 232.18 503 225V25C503 17.8203 497.18 12 490 12ZM290 0C276.193 0 265 11.1929 265 25V225C265 238.807 276.193 250 290 250H490C503.807 250 515 238.807 515 225V25C515 11.1929 503.807 0 490 0H290Z" fill="#FFA800"/>
<path d="M265 555C265 541.193 276.193 530 290 530H490C503.807 530 515 541.193 515 555V755C515 768.807 503.807 780 490 780H290C276.193 780 265 768.807 265 755V555Z" fill="#F1D693" fill-opacity="0.9"/>
<path d="M265 290C265 276.193 276.193 265 290 265H490C503.807 265 515 276.193 515 290V490C515 503.807 503.807 515 490 515H290C276.193 515 265 503.807 265 490V290Z" fill="#92A643"/>
<path d="M265 820C265 806.193 276.193 795 290 795H490C503.807 795 515 806.193 515 820V1020C515 1033.81 503.807 1045 490 1045H290C276.193 1045 265 1033.81 265 1020V820Z" fill="#038AFF" fill-opacity="0.9"/>
<path d="M795 25C795 11.1929 806.193 0 820 0H1020C1033.81 0 1045 11.1929 1045 25V225C1045 238.807 1033.81 250 1020 250H820C806.193 250 795 238.807 795 225V25Z" fill="#884400"/>
<path d="M795 555C795 541.193 806.193 530 820 530H1020C1033.81 530 1045 541.193 1045 555V755C1045 768.807 1033.81 780 1020 780H820C806.193 780 795 768.807 795 755V555Z" fill="#F1D693" fill-opacity="0.9"/>
<path d="M795 290C795 276.193 806.193 265 820 265H1020C1033.81 265 1045 276.193 1045 290V490C1045 503.807 1033.81 515 1020 515H820C806.193 515 795 503.807 795 490V290Z" fill="#F1D693" fill-opacity="0.9"/>
<path d="M795 820C795 806.193 806.193 795 820 795H1020C1033.81 795 1045 806.193 1045 820V1020C1045 1033.81 1033.81 1045 1020 1045H820C806.193 1045 795 1033.81 795 1020V820Z" fill="#884400"/>
<path d="M135.264 441.636V369.636H149.582V378.432H150.23C150.866 377.023 151.787 375.591 152.991 374.136C154.219 372.659 155.81 371.432 157.764 370.455C159.741 369.455 162.196 368.955 165.128 368.955C168.946 368.955 172.469 369.955 175.696 371.955C178.923 373.932 181.503 376.92 183.435 380.92C185.366 384.898 186.332 389.886 186.332 395.886C186.332 401.727 185.389 406.659 183.503 410.682C181.639 414.682 179.094 417.716 175.866 419.784C172.662 421.83 169.071 422.852 165.094 422.852C162.276 422.852 159.878 422.386 157.901 421.455C155.946 420.523 154.344 419.352 153.094 417.943C151.844 416.511 150.889 415.068 150.23 413.614H149.787V441.636H135.264ZM149.48 395.818C149.48 398.932 149.912 401.648 150.776 403.966C151.639 406.284 152.889 408.091 154.526 409.386C156.162 410.659 158.151 411.295 160.491 411.295C162.855 411.295 164.855 410.648 166.491 409.352C168.128 408.034 169.366 406.216 170.207 403.898C171.071 401.557 171.503 398.864 171.503 395.818C171.503 392.795 171.082 390.136 170.241 387.841C169.401 385.545 168.162 383.75 166.526 382.455C164.889 381.159 162.878 380.511 160.491 380.511C158.128 380.511 156.128 381.136 154.491 382.386C152.878 383.636 151.639 385.409 150.776 387.705C149.912 390 149.48 392.705 149.48 395.818Z" fill="#FFA800"/>
<path d="M74.6591 422V411.364L99.5114 388.352C101.625 386.307 103.398 384.466 104.83 382.83C106.284 381.193 107.386 379.591 108.136 378.023C108.886 376.432 109.261 374.716 109.261 372.875C109.261 370.83 108.795 369.068 107.864 367.591C106.932 366.091 105.659 364.943 104.045 364.148C102.432 363.33 100.602 362.92 98.5568 362.92C96.4205 362.92 94.5568 363.352 92.9659 364.216C91.375 365.08 90.1477 366.318 89.2841 367.932C88.4205 369.545 87.9886 371.466 87.9886 373.693H73.9773C73.9773 369.125 75.0114 365.159 77.0795 361.795C79.1477 358.432 82.0455 355.83 85.7727 353.989C89.5 352.148 93.7955 351.227 98.6591 351.227C103.659 351.227 108.011 352.114 111.716 353.886C115.443 355.636 118.341 358.068 120.409 361.182C122.477 364.295 123.511 367.864 123.511 371.886C123.511 374.523 122.989 377.125 121.943 379.693C120.92 382.261 119.091 385.114 116.455 388.25C113.818 391.364 110.102 395.102 105.307 399.466L95.1136 409.455V409.932H124.432V422H74.6591Z" fill="#FFA800"/>
<path d="M400.264 176.636V104.636H414.582V113.432H415.23C415.866 112.023 416.787 110.591 417.991 109.136C419.219 107.659 420.81 106.432 422.764 105.455C424.741 104.455 427.196 103.955 430.128 103.955C433.946 103.955 437.469 104.955 440.696 106.955C443.923 108.932 446.503 111.92 448.435 115.92C450.367 119.898 451.332 124.886 451.332 130.886C451.332 136.727 450.389 141.659 448.503 145.682C446.639 149.682 444.094 152.716 440.866 154.784C437.662 156.83 434.071 157.852 430.094 157.852C427.276 157.852 424.878 157.386 422.901 156.455C420.946 155.523 419.344 154.352 418.094 152.943C416.844 151.511 415.889 150.068 415.23 148.614H414.787V176.636H400.264ZM414.48 130.818C414.48 133.932 414.912 136.648 415.776 138.966C416.639 141.284 417.889 143.091 419.526 144.386C421.162 145.659 423.151 146.295 425.491 146.295C427.855 146.295 429.855 145.648 431.491 144.352C433.128 143.034 434.366 141.216 435.207 138.898C436.071 136.557 436.503 133.864 436.503 130.818C436.503 127.795 436.082 125.136 435.241 122.841C434.401 120.545 433.162 118.75 431.526 117.455C429.889 116.159 427.878 115.511 425.491 115.511C423.128 115.511 421.128 116.136 419.491 117.386C417.878 118.636 416.639 120.409 415.776 122.705C414.912 125 414.48 127.705 414.48 130.818Z" fill="#FFA800"/>
<path d="M339.659 157V146.364L364.511 123.352C366.625 121.307 368.398 119.466 369.83 117.83C371.284 116.193 372.386 114.591 373.136 113.023C373.886 111.432 374.261 109.716 374.261 107.875C374.261 105.83 373.795 104.068 372.864 102.591C371.932 101.091 370.659 99.9432 369.045 99.1477C367.432 98.3295 365.602 97.9205 363.557 97.9205C361.42 97.9205 359.557 98.3523 357.966 99.2159C356.375 100.08 355.148 101.318 354.284 102.932C353.42 104.545 352.989 106.466 352.989 108.693H338.977C338.977 104.125 340.011 100.159 342.08 96.7955C344.148 93.4318 347.045 90.8295 350.773 88.9886C354.5 87.1477 358.795 86.2273 363.659 86.2273C368.659 86.2273 373.011 87.1136 376.716 88.8864C380.443 90.6364 383.341 93.0682 385.409 96.1818C387.477 99.2955 388.511 102.864 388.511 106.886C388.511 109.523 387.989 112.125 386.943 114.693C385.92 117.261 384.091 120.114 381.455 123.25C378.818 126.364 375.102 130.102 370.307 134.466L360.114 144.455V144.932H389.432V157H339.659Z" fill="#FFA800"/>
<path d="M665.264 176.636V104.636H679.582V113.432H680.23C680.866 112.023 681.787 110.591 682.992 109.136C684.219 107.659 685.81 106.432 687.764 105.455C689.741 104.455 692.196 103.955 695.128 103.955C698.946 103.955 702.469 104.955 705.696 106.955C708.923 108.932 711.503 111.92 713.435 115.92C715.367 119.898 716.332 124.886 716.332 130.886C716.332 136.727 715.389 141.659 713.503 145.682C711.639 149.682 709.094 152.716 705.867 154.784C702.662 156.83 699.071 157.852 695.094 157.852C692.276 157.852 689.878 157.386 687.901 156.455C685.946 155.523 684.344 154.352 683.094 152.943C681.844 151.511 680.889 150.068 680.23 148.614H679.787V176.636H665.264ZM679.48 130.818C679.48 133.932 679.912 136.648 680.776 138.966C681.639 141.284 682.889 143.091 684.526 144.386C686.162 145.659 688.151 146.295 690.492 146.295C692.855 146.295 694.855 145.648 696.492 144.352C698.128 143.034 699.366 141.216 700.207 138.898C701.071 136.557 701.503 133.864 701.503 130.818C701.503 127.795 701.082 125.136 700.242 122.841C699.401 120.545 698.162 118.75 696.526 117.455C694.889 116.159 692.878 115.511 690.492 115.511C688.128 115.511 686.128 116.136 684.492 117.386C682.878 118.636 681.639 120.409 680.776 122.705C679.912 125 679.48 127.705 679.48 130.818Z" fill="#FFA800"/>
<path d="M604.659 157V146.364L629.511 123.352C631.625 121.307 633.398 119.466 634.83 117.83C636.284 116.193 637.386 114.591 638.136 113.023C638.886 111.432 639.261 109.716 639.261 107.875C639.261 105.83 638.795 104.068 637.864 102.591C636.932 101.091 635.659 99.9432 634.045 99.1477C632.432 98.3295 630.602 97.9205 628.557 97.9205C626.42 97.9205 624.557 98.3523 622.966 99.2159C621.375 100.08 620.148 101.318 619.284 102.932C618.42 104.545 617.989 106.466 617.989 108.693H603.977C603.977 104.125 605.011 100.159 607.08 96.7955C609.148 93.4318 612.045 90.8295 615.773 88.9886C619.5 87.1477 623.795 86.2273 628.659 86.2273C633.659 86.2273 638.011 87.1136 641.716 88.8864C645.443 90.6364 648.341 93.0682 650.409 96.1818C652.477 99.2955 653.511 102.864 653.511 106.886C653.511 109.523 652.989 112.125 651.943 114.693C650.921 117.261 649.091 120.114 646.455 123.25C643.818 126.364 640.102 130.102 635.307 134.466L625.114 144.455V144.932H654.432V157H604.659Z" fill="#FFA800"/>
<path d="M665.264 972.636V900.636H679.582V909.432H680.23C680.866 908.023 681.787 906.591 682.992 905.136C684.219 903.659 685.81 902.432 687.764 901.455C689.741 900.455 692.196 899.955 695.128 899.955C698.946 899.955 702.469 900.955 705.696 902.955C708.923 904.932 711.503 907.92 713.435 911.92C715.367 915.898 716.332 920.886 716.332 926.886C716.332 932.727 715.389 937.659 713.503 941.682C711.639 945.682 709.094 948.716 705.867 950.784C702.662 952.83 699.071 953.852 695.094 953.852C692.276 953.852 689.878 953.386 687.901 952.455C685.946 951.523 684.344 950.352 683.094 948.943C681.844 947.511 680.889 946.068 680.23 944.614H679.787V972.636H665.264ZM679.48 926.818C679.48 929.932 679.912 932.648 680.776 934.966C681.639 937.284 682.889 939.091 684.526 940.386C686.162 941.659 688.151 942.295 690.492 942.295C692.855 942.295 694.855 941.648 696.492 940.352C698.128 939.034 699.366 937.216 700.207 934.898C701.071 932.557 701.503 929.864 701.503 926.818C701.503 923.795 701.082 921.136 700.242 918.841C699.401 916.545 698.162 914.75 696.526 913.455C694.889 912.159 692.878 911.511 690.492 911.511C688.128 911.511 686.128 912.136 684.492 913.386C682.878 914.636 681.639 916.409 680.776 918.705C679.912 921 679.48 923.705 679.48 926.818Z" fill="#FFA800"/>
<path d="M604.659 953V942.364L629.511 919.352C631.625 917.307 633.398 915.466 634.83 913.83C636.284 912.193 637.386 910.591 638.136 909.023C638.886 907.432 639.261 905.716 639.261 903.875C639.261 901.83 638.795 900.068 637.864 898.591C636.932 897.091 635.659 895.943 634.045 895.148C632.432 894.33 630.602 893.92 628.557 893.92C626.42 893.92 624.557 894.352 622.966 895.216C621.375 896.08 620.148 897.318 619.284 898.932C618.42 900.545 617.989 902.466 617.989 904.693H603.977C603.977 900.125 605.011 896.159 607.08 892.795C609.148 889.432 612.045 886.83 615.773 884.989C619.5 883.148 623.795 882.227 628.659 882.227C633.659 882.227 638.011 883.114 641.716 884.886C645.443 886.636 648.341 889.068 650.409 892.182C652.477 895.295 653.511 898.864 653.511 902.886C653.511 905.523 652.989 908.125 651.943 910.693C650.921 913.261 649.091 916.114 646.455 919.25C643.818 922.364 640.102 926.102 635.307 930.466L625.114 940.455V940.932H654.432V953H604.659Z" fill="#FFA800"/>
</svg>
