<svg width="1293" height="1217" viewBox="0 0 1293 1217" fill="none" xmlns="http://www.w3.org/2000/svg">
<path d="M186.6 196.776C186.6 182.969 197.793 171.776 211.6 171.776H411.6C425.407 171.776 436.6 182.969 436.6 196.776V396.776C436.6 410.583 425.407 421.776 411.6 421.776H211.6C197.793 421.776 186.6 410.583 186.6 396.776V196.776Z" fill="#F1D693" fill-opacity="0.9"/>
<path d="M186.6 726.776C186.6 712.969 197.793 701.776 211.6 701.776H411.6C425.407 701.776 436.6 712.969 436.6 726.776V926.776C436.6 940.583 425.407 951.776 411.6 951.776H211.6C197.793 951.776 186.6 940.583 186.6 926.776V726.776Z" fill="#884400"/>
<path d="M186.6 461.776C186.6 447.969 197.793 436.776 211.6 436.776H411.6C425.407 436.776 436.6 447.969 436.6 461.776V661.776C436.6 675.583 425.407 686.776 411.6 686.776H211.6C197.793 686.776 186.6 675.583 186.6 661.776V461.776Z" fill="#F1D693" fill-opacity="0.9"/>
<path d="M186.6 991.776C186.6 977.969 197.793 966.776 211.6 966.776H411.6C425.407 966.776 436.6 977.969 436.6 991.776V1191.78C436.6 1205.58 425.407 1216.78 411.6 1216.78H211.6C197.793 1216.78 186.6 1205.58 186.6 1191.78V991.776Z" fill="#FF4C30" fill-opacity="0.9"/>
<path fill-rule="evenodd" clip-rule="evenodd" d="M411.6 978.776H211.6C204.42 978.776 198.6 984.596 198.6 991.776V1191.78C198.6 1198.96 204.42 1204.78 211.6 1204.78H411.6C418.78 1204.78 424.6 1198.96 424.6 1191.78V991.776C424.6 984.596 418.78 978.776 411.6 978.776ZM211.6 966.776C197.793 966.776 186.6 977.969 186.6 991.776V1191.78C186.6 1205.58 197.793 1216.78 211.6 1216.78H411.6C425.407 1216.78 436.6 1205.58 436.6 1191.78V991.776C436.6 977.969 425.407 966.776 411.6 966.776H211.6Z" fill="#FFA800"/>
<path d="M716.6 196.776C716.6 182.969 727.793 171.776 741.6 171.776H941.6C955.407 171.776 966.6 182.969 966.6 196.776V396.776C966.6 410.583 955.407 421.776 941.6 421.776H741.6C727.793 421.776 716.6 410.583 716.6 396.776V196.776Z" fill="#FF4C30" fill-opacity="0.9"/>
<path fill-rule="evenodd" clip-rule="evenodd" d="M941.6 183.776H741.6C734.42 183.776 728.6 189.596 728.6 196.776V396.776C728.6 403.956 734.42 409.776 741.6 409.776H941.6C948.78 409.776 954.6 403.956 954.6 396.776V196.776C954.6 189.596 948.78 183.776 941.6 183.776ZM741.6 171.776C727.793 171.776 716.6 182.969 716.6 196.776V396.776C716.6 410.583 727.793 421.776 741.6 421.776H941.6C955.407 421.776 966.6 410.583 966.6 396.776V196.776C966.6 182.969 955.407 171.776 941.6 171.776H741.6Z" fill="#FFA800"/>
<path d="M716.6 726.776C716.6 712.969 727.793 701.776 741.6 701.776H941.6C955.407 701.776 966.6 712.969 966.6 726.776V926.776C966.6 940.583 955.407 951.776 941.6 951.776H741.6C727.793 951.776 716.6 940.583 716.6 926.776V726.776Z" fill="#038AFF" fill-opacity="0.9"/>
<path fill-rule="evenodd" clip-rule="evenodd" d="M941.6 713.776H741.6C734.42 713.776 728.6 719.596 728.6 726.776V926.776C728.6 933.956 734.42 939.776 741.6 939.776H941.6C948.78 939.776 954.6 933.956 954.6 926.776V726.776C954.6 719.596 948.78 713.776 941.6 713.776ZM741.6 701.776C727.793 701.776 716.6 712.969 716.6 726.776V926.776C716.6 940.583 727.793 951.776 741.6 951.776H941.6C955.407 951.776 966.6 940.583 966.6 926.776V726.776C966.6 712.969 955.407 701.776 941.6 701.776H741.6Z" fill="#FFA800"/>
<path d="M716.6 461.776C716.6 447.969 727.793 436.776 741.6 436.776H941.6C955.407 436.776 966.6 447.969 966.6 461.776V661.776C966.6 675.583 955.407 686.776 941.6 686.776H741.6C727.793 686.776 716.6 675.583 716.6 661.776V461.776Z" fill="#FF4C30" fill-opacity="0.9"/>
<path fill-rule="evenodd" clip-rule="evenodd" d="M941.6 448.776H741.6C734.42 448.776 728.6 454.596 728.6 461.776V661.776C728.6 668.956 734.42 674.776 741.6 674.776H941.6C948.78 674.776 954.6 668.956 954.6 661.776V461.776C954.6 454.596 948.78 448.776 941.6 448.776ZM741.6 436.776C727.793 436.776 716.6 447.969 716.6 461.776V661.776C716.6 675.583 727.793 686.776 741.6 686.776H941.6C955.407 686.776 966.6 675.583 966.6 661.776V461.776C966.6 447.969 955.407 436.776 941.6 436.776H741.6Z" fill="#FFA800"/>
<path d="M716.6 991.776C716.6 977.969 727.793 966.776 741.6 966.776H941.6C955.407 966.776 966.6 977.969 966.6 991.776V1191.78C966.6 1205.58 955.407 1216.78 941.6 1216.78H741.6C727.793 1216.78 716.6 1205.58 716.6 1191.78V991.776Z" fill="#038AFF" fill-opacity="0.9"/>
<path fill-rule="evenodd" clip-rule="evenodd" d="M941.6 978.776H741.6C734.42 978.776 728.6 984.596 728.6 991.776V1191.78C728.6 1198.96 734.42 1204.78 741.6 1204.78H941.6C948.78 1204.78 954.6 1198.96 954.6 1191.78V991.776C954.6 984.596 948.78 978.776 941.6 978.776ZM741.6 966.776C727.793 966.776 716.6 977.969 716.6 991.776V1191.78C716.6 1205.58 727.793 1216.78 741.6 1216.78H941.6C955.407 1216.78 966.6 1205.58 966.6 1191.78V991.776C966.6 977.969 955.407 966.776 941.6 966.776H741.6Z" fill="#FFA800"/>
<path d="M451.6 196.776C451.6 182.969 462.793 171.776 476.6 171.776H676.6C690.407 171.776 701.6 182.969 701.6 196.776V396.776C701.6 410.583 690.407 421.776 676.6 421.776H476.6C462.793 421.776 451.6 410.583 451.6 396.776V196.776Z" fill="#F1D693" fill-opacity="0.9"/>
<path d="M451.6 726.776C451.6 712.969 462.793 701.776 476.6 701.776H676.6C690.407 701.776 701.6 712.969 701.6 726.776V926.776C701.6 940.583 690.407 951.776 676.6 951.776H476.6C462.793 951.776 451.6 940.583 451.6 926.776V726.776Z" fill="#FF4C30" fill-opacity="0.9"/>
<path d="M451.6 461.776C451.6 447.969 462.793 436.776 476.6 436.776H676.6C690.407 436.776 701.6 447.969 701.6 461.776V661.776C701.6 675.583 690.407 686.776 676.6 686.776H476.6C462.793 686.776 451.6 675.583 451.6 661.776V461.776Z" fill="#F1D693" fill-opacity="0.9"/>
<path d="M451.6 991.776C451.6 977.969 462.793 966.776 476.6 966.776H676.6C690.407 966.776 701.6 977.969 701.6 991.776V1191.78C701.6 1205.58 690.407 1216.78 676.6 1216.78H476.6C462.793 1216.78 451.6 1205.58 451.6 1191.78V991.776Z" fill="#FF4C30" fill-opacity="0.9"/>
<path fill-rule="evenodd" clip-rule="evenodd" d="M676.6 978.776H476.6C469.42 978.776 463.6 984.596 463.6 991.776V1191.78C463.6 1198.96 469.42 1204.78 476.6 1204.78H676.6C683.78 1204.78 689.6 1198.96 689.6 1191.78V991.776C689.6 984.596 683.78 978.776 676.6 978.776ZM476.6 966.776C462.793 966.776 451.6 977.969 451.6 991.776V1191.78C451.6 1205.58 462.793 1216.78 476.6 1216.78H676.6C690.407 1216.78 701.6 1205.58 701.6 1191.78V991.776C701.6 977.969 690.407 966.776 676.6 966.776H476.6Z" fill="#FFA800"/>
<path d="M981.6 196.776C981.6 182.969 992.793 171.776 1006.6 171.776H1206.6C1220.41 171.776 1231.6 182.969 1231.6 196.776V396.776C1231.6 410.583 1220.41 421.776 1206.6 421.776H1006.6C992.793 421.776 981.6 410.583 981.6 396.776V196.776Z" fill="#884400"/>
<path d="M981.6 726.776C981.6 712.969 992.793 701.776 1006.6 701.776H1206.6C1220.41 701.776 1231.6 712.969 1231.6 726.776V926.776C1231.6 940.583 1220.41 951.776 1206.6 951.776H1006.6C992.793 951.776 981.6 940.583 981.6 926.776V726.776Z" fill="#FF4C30" fill-opacity="0.9"/>
<path d="M981.6 461.776C981.6 447.969 992.793 436.776 1006.6 436.776H1206.6C1220.41 436.776 1231.6 447.969 1231.6 461.776V661.776C1231.6 675.583 1220.41 686.776 1206.6 686.776H1006.6C992.793 686.776 981.6 675.583 981.6 661.776V461.776Z" fill="#FF4C30" fill-opacity="0.9"/>
<path d="M981.6 991.776C981.6 977.969 992.793 966.776 1006.6 966.776H1206.6C1220.41 966.776 1231.6 977.969 1231.6 991.776V1191.78C1231.6 1205.58 1220.41 1216.78 1206.6 1216.78H1006.6C992.793 1216.78 981.6 1205.58 981.6 1191.78V991.776Z" fill="#884400"/>
<path fill-rule="evenodd" clip-rule="evenodd" d="M1206.6 978.776H1006.6C999.42 978.776 993.6 984.596 993.6 991.776V1191.78C993.6 1198.96 999.42 1204.78 1006.6 1204.78H1206.6C1213.78 1204.78 1219.6 1198.96 1219.6 1191.78V991.776C1219.6 984.596 1213.78 978.776 1206.6 978.776ZM1006.6 966.776C992.793 966.776 981.6 977.969 981.6 991.776V1191.78C981.6 1205.58 992.793 1216.78 1006.6 1216.78H1206.6C1220.41 1216.78 1231.6 1205.58 1231.6 1191.78V991.776C1231.6 977.969 1220.41 966.776 1206.6 966.776H1006.6Z" fill="#FFA800"/>
<path d="M84.6953 1127.74C81.5593 1127.74 78.6793 1127.13 76.0553 1125.91C73.4313 1124.7 71.2873 1123.03 69.6233 1120.92C67.9593 1118.74 66.9993 1116.28 66.7433 1113.53V1093.85C66.9993 1091.1 67.9593 1088.6 69.6233 1086.36C71.2873 1084.12 73.4313 1082.36 76.0553 1081.08C78.6793 1079.8 81.5593 1079.16 84.6953 1079.16C89.1113 1079.16 93.0153 1080.22 96.4073 1082.33C99.8633 1084.44 102.551 1087.32 104.471 1090.97C106.455 1094.62 107.447 1098.78 107.447 1103.45C107.447 1108.12 106.455 1112.28 104.471 1115.93C102.551 1119.58 99.8633 1122.46 96.4073 1124.57C93.0153 1126.68 89.1113 1127.74 84.6953 1127.74ZM82.0073 1114.49C84.1193 1114.49 85.9433 1114.01 87.4793 1113.05C89.0793 1112.09 90.3273 1110.78 91.2233 1109.11C92.1193 1107.45 92.5673 1105.56 92.5673 1103.45C92.5673 1101.27 92.1193 1099.35 91.2233 1097.69C90.3273 1096.02 89.0793 1094.74 87.4793 1093.85C85.9433 1092.89 84.1513 1092.41 82.1033 1092.41C80.0553 1092.41 78.2313 1092.89 76.6313 1093.85C75.0953 1094.74 73.8793 1096.02 72.9833 1097.69C72.0873 1099.35 71.6393 1101.27 71.6393 1103.45C71.6393 1105.56 72.0553 1107.45 72.8873 1109.11C73.7833 1110.78 75.0313 1112.09 76.6313 1113.05C78.2313 1114.01 80.0233 1114.49 82.0073 1114.49ZM57.8153 1146.46V1080.12H72.5033V1092.12L70.1033 1103.45L72.3113 1114.78V1146.46H57.8153Z" fill="#FFA800"/>
<path d="M25.152 1127.83C20.416 1127.83 16.128 1126.78 12.288 1124.66C8.512 1122.55 5.504 1119.74 3.264 1116.22C1.088 1112.63 0 1108.63 0 1104.22C0 1098.46 2.016 1092.63 6.048 1086.74L25.152 1059H42.144L20.928 1088.57L15.264 1089.05C16.16 1087.51 17.088 1086.2 18.048 1085.11C19.072 1083.96 20.352 1083.1 21.888 1082.52C23.424 1081.88 25.376 1081.56 27.744 1081.56C31.968 1081.56 35.744 1082.55 39.072 1084.54C42.464 1086.46 45.184 1089.11 47.232 1092.5C49.28 1095.83 50.304 1099.67 50.304 1104.02C50.304 1108.44 49.184 1112.47 46.944 1116.12C44.704 1119.7 41.696 1122.55 37.92 1124.66C34.144 1126.78 29.888 1127.83 25.152 1127.83ZM25.152 1114.68C27.136 1114.68 28.928 1114.2 30.528 1113.24C32.128 1112.28 33.376 1110.97 34.272 1109.3C35.168 1107.64 35.616 1105.78 35.616 1103.74C35.616 1101.62 35.168 1099.77 34.272 1098.17C33.376 1096.5 32.128 1095.22 30.528 1094.33C28.928 1093.37 27.136 1092.89 25.152 1092.89C23.104 1092.89 21.28 1093.37 19.68 1094.33C18.144 1095.22 16.928 1096.5 16.032 1098.17C15.136 1099.77 14.688 1101.62 14.688 1103.74C14.688 1105.78 15.136 1107.64 16.032 1109.3C16.928 1110.97 18.144 1112.28 19.68 1113.24C21.28 1114.2 23.104 1114.68 25.152 1114.68Z" fill="#FFA800"/>
<path d="M872.695 68.7359C869.559 68.7359 866.679 68.1279 864.055 66.9119C861.431 65.6959 859.287 64.0319 857.623 61.9199C855.959 59.7439 854.999 57.2799 854.743 54.5279V34.8479C854.999 32.0959 855.959 29.5999 857.623 27.3599C859.287 25.1199 861.431 23.3599 864.055 22.0799C866.679 20.7999 869.559 20.1599 872.695 20.1599C877.111 20.1599 881.015 21.2159 884.407 23.3279C887.863 25.4399 890.551 28.3199 892.471 31.9679C894.455 35.6159 895.447 39.7759 895.447 44.4479C895.447 49.1199 894.455 53.2799 892.471 56.9279C890.551 60.5759 887.863 63.4559 884.407 65.5679C881.015 67.6799 877.111 68.7359 872.695 68.7359ZM870.007 55.4879C872.119 55.4879 873.943 55.0079 875.479 54.0479C877.079 53.0879 878.327 51.7759 879.223 50.1119C880.119 48.4479 880.567 46.5599 880.567 44.4479C880.567 42.2719 880.119 40.3519 879.223 38.6879C878.327 37.0239 877.079 35.7439 875.479 34.8479C873.943 33.8879 872.151 33.4079 870.103 33.4079C868.055 33.4079 866.231 33.8879 864.631 34.8479C863.095 35.7439 861.879 37.0239 860.983 38.6879C860.087 40.3519 859.639 42.2719 859.639 44.4479C859.639 46.5599 860.055 48.4479 860.887 50.1119C861.783 51.7759 863.031 53.0879 864.631 54.0479C866.231 55.0079 868.023 55.4879 870.007 55.4879ZM845.815 87.4559V21.1199H860.503V33.1199L858.103 44.4479L860.311 55.7759V87.4559H845.815Z" fill="#FFA800"/>
<path d="M813.152 68.832C808.416 68.832 804.128 67.776 800.288 65.664C796.512 63.552 793.504 60.736 791.264 57.216C789.088 53.632 788 49.632 788 45.216C788 39.456 790.016 33.632 794.048 27.744L813.152 0H830.144L808.928 29.568L803.264 30.048C804.16 28.512 805.088 27.2 806.048 26.112C807.072 24.96 808.352 24.096 809.888 23.52C811.424 22.88 813.376 22.56 815.744 22.56C819.968 22.56 823.744 23.552 827.072 25.536C830.464 27.456 833.184 30.112 835.232 33.504C837.28 36.832 838.304 40.672 838.304 45.024C838.304 49.44 837.184 53.472 834.944 57.12C832.704 60.704 829.696 63.552 825.92 65.664C822.144 67.776 817.888 68.832 813.152 68.832ZM813.152 55.68C815.136 55.68 816.928 55.2 818.528 54.24C820.128 53.28 821.376 51.968 822.272 50.304C823.168 48.64 823.616 46.784 823.616 44.736C823.616 42.624 823.168 40.768 822.272 39.168C821.376 37.504 820.128 36.224 818.528 35.328C816.928 34.368 815.136 33.888 813.152 33.888C811.104 33.888 809.28 34.368 807.68 35.328C806.144 36.224 804.928 37.504 804.032 39.168C803.136 40.768 802.688 42.624 802.688 44.736C802.688 46.784 803.136 48.64 804.032 50.304C804.928 51.968 806.144 53.28 807.68 54.24C809.28 55.2 811.104 55.68 813.152 55.68Z" fill="#FFA800"/>
<path fill-rule="evenodd" clip-rule="evenodd" d="M125.6 1216.78L125.6 142.776H155.6L155.6 1216.78H125.6Z" fill="#E5E5E5"/>
<path fill-rule="evenodd" clip-rule="evenodd" d="M1262.6 1216.78V142.776H1292.6V1216.78H1262.6Z" fill="#E5E5E5"/>
<path fill-rule="evenodd" clip-rule="evenodd" d="M1292.6 142.776L125.6 142.776L125.6 112.776L1292.6 112.776L1292.6 142.776Z" fill="#E5E5E5"/>
</svg>
