<svg width="1045" height="1045" viewBox="0 0 1045 1045" fill="none" xmlns="http://www.w3.org/2000/svg">
<path d="M0 25C0 11.1929 11.1929 0 25 0H225C238.807 0 250 11.1929 250 25V225C250 238.807 238.807 250 225 250H25C11.1929 250 0 238.807 0 225V25Z" fill="#26A65B" fill-opacity="0.9"/>
<path d="M0 555C0 541.193 11.1929 530 25 530H225C238.807 530 250 541.193 250 555V755C250 768.807 238.807 780 225 780H25C11.1929 780 0 768.807 0 755V555Z" fill="#884400"/>
<path d="M0 290C0 276.193 11.1929 265 25 265H225C238.807 265 250 276.193 250 290V490C250 503.807 238.807 515 225 515H25C11.1929 515 0 503.807 0 490V290Z" fill="#26A65B" fill-opacity="0.9"/>
<path d="M0 820C0 806.193 11.1929 795 25 795H225C238.807 795 250 806.193 250 820V1020C250 1033.81 238.807 1045 225 1045H25C11.1929 1045 0 1033.81 0 1020V820Z" fill="#F1D693" fill-opacity="0.9"/>
<path d="M530 25C530 11.1929 541.193 0 555 0H755C768.807 0 780 11.1929 780 25V225C780 238.807 768.807 250 755 250H555C541.193 250 530 238.807 530 225V25Z" fill="#26A65B" fill-opacity="0.9"/>
<path d="M530 555C530 541.193 541.193 530 555 530H755C768.807 530 780 541.193 780 555V755C780 768.807 768.807 780 755 780H555C541.193 780 530 768.807 530 755V555Z" fill="#F1D693" fill-opacity="0.9"/>
<path d="M530 290C530 276.193 541.193 265 555 265H755C768.807 265 780 276.193 780 290V490C780 503.807 768.807 515 755 515H555C541.193 515 530 503.807 530 490V290Z" fill="#26A65B" fill-opacity="0.9"/>
<path d="M530 820C530 806.193 541.193 795 555 795H755C768.807 795 780 806.193 780 820V1020C780 1033.81 768.807 1045 755 1045H555C541.193 1045 530 1033.81 530 1020V820Z" fill="#F1D693" fill-opacity="0.9"/>
<path d="M265 25C265 11.1929 276.193 0 290 0H490C503.807 0 515 11.1929 515 25V225C515 238.807 503.807 250 490 250H290C276.193 250 265 238.807 265 225V25Z" fill="#F1D693" fill-opacity="0.9"/>
<path d="M265 555C265 541.193 276.193 530 290 530H490C503.807 530 515 541.193 515 555V755C515 768.807 503.807 780 490 780H290C276.193 780 265 768.807 265 755V555Z" fill="#26A65B" fill-opacity="0.9"/>
<path fill-rule="evenodd" clip-rule="evenodd" d="M490 542H290C282.82 542 277 547.82 277 555V755C277 762.18 282.82 768 290 768H490C497.18 768 503 762.18 503 755V555C503 547.82 497.18 542 490 542ZM290 530C276.193 530 265 541.193 265 555V755C265 768.807 276.193 780 290 780H490C503.807 780 515 768.807 515 755V555C515 541.193 503.807 530 490 530H290Z" fill="#FFA800"/>
<path d="M265 290C265 276.193 276.193 265 290 265H490C503.807 265 515 276.193 515 290V490C515 503.807 503.807 515 490 515H290C276.193 515 265 503.807 265 490V290Z" fill="#26A65B" fill-opacity="0.9"/>
<path fill-rule="evenodd" clip-rule="evenodd" d="M490 277H290C282.82 277 277 282.82 277 290V490C277 497.18 282.82 503 290 503H490C497.18 503 503 497.18 503 490V290C503 282.82 497.18 277 490 277ZM290 265C276.193 265 265 276.193 265 290V490C265 503.807 276.193 515 290 515H490C503.807 515 515 503.807 515 490V290C515 276.193 503.807 265 490 265H290Z" fill="#FFA800"/>
<path d="M265 820C265 806.193 276.193 795 290 795H490C503.807 795 515 806.193 515 820V1020C515 1033.81 503.807 1045 490 1045H290C276.193 1045 265 1033.81 265 1020V820Z" fill="#26A65B" fill-opacity="0.9"/>
<path fill-rule="evenodd" clip-rule="evenodd" d="M490 807H290C282.82 807 277 812.82 277 820V1020C277 1027.18 282.82 1033 290 1033H490C497.18 1033 503 1027.18 503 1020V820C503 812.82 497.18 807 490 807ZM290 795C276.193 795 265 806.193 265 820V1020C265 1033.81 276.193 1045 290 1045H490C503.807 1045 515 1033.81 515 1020V820C515 806.193 503.807 795 490 795H290Z" fill="#FFA800"/>
<path d="M795 25C795 11.1929 806.193 0 820 0H1020C1033.81 0 1045 11.1929 1045 25V225C1045 238.807 1033.81 250 1020 250H820C806.193 250 795 238.807 795 225V25Z" fill="#884400"/>
<path d="M795 555C795 541.193 806.193 530 820 530H1020C1033.81 530 1045 541.193 1045 555V755C1045 768.807 1033.81 780 1020 780H820C806.193 780 795 768.807 795 755V555Z" fill="#26A65B" fill-opacity="0.9"/>
<path d="M795 290C795 276.193 806.193 265 820 265H1020C1033.81 265 1045 276.193 1045 290V490C1045 503.807 1033.81 515 1020 515H820C806.193 515 795 503.807 795 490V290Z" fill="#26A65B" fill-opacity="0.9"/>
<path d="M795 820C795 806.193 806.193 795 820 795H1020C1033.81 795 1045 806.193 1045 820V1020C1045 1033.81 1033.81 1045 1020 1045H820C806.193 1045 795 1033.81 795 1020V820Z" fill="#26A65B" fill-opacity="0.9"/>
<path d="M420.252 425.96C417.116 425.96 414.236 425.352 411.612 424.136C408.988 422.92 406.844 421.256 405.18 419.144C403.516 416.968 402.556 414.504 402.3 411.752V392.072C402.556 389.32 403.516 386.824 405.18 384.584C406.844 382.344 408.988 380.584 411.612 379.304C414.236 378.024 417.116 377.384 420.252 377.384C424.668 377.384 428.572 378.44 431.964 380.552C435.42 382.664 438.108 385.544 440.028 389.192C442.012 392.84 443.004 397 443.004 401.672C443.004 406.344 442.012 410.504 440.028 414.152C438.108 417.8 435.42 420.68 431.964 422.792C428.572 424.904 424.668 425.96 420.252 425.96ZM417.564 412.712C419.676 412.712 421.5 412.232 423.036 411.272C424.636 410.312 425.884 409 426.78 407.336C427.676 405.672 428.124 403.784 428.124 401.672C428.124 399.496 427.676 397.576 426.78 395.912C425.884 394.248 424.636 392.968 423.036 392.072C421.5 391.112 419.708 390.632 417.66 390.632C415.612 390.632 413.788 391.112 412.188 392.072C410.652 392.968 409.436 394.248 408.54 395.912C407.644 397.576 407.196 399.496 407.196 401.672C407.196 403.784 407.612 405.672 408.444 407.336C409.34 409 410.588 410.312 412.188 411.272C413.788 412.232 415.58 412.712 417.564 412.712ZM393.372 444.68V378.344H408.06V390.344L405.66 401.672L407.868 413V444.68H393.372Z" fill="#FFA800"/>
<path d="M336.304 416.552L362.32 389.672C363.92 388.072 365.2 386.6 366.16 385.256C367.12 383.912 367.824 382.664 368.272 381.512C368.72 380.296 368.944 379.08 368.944 377.864C368.944 375.24 368.08 373.192 366.352 371.72C364.688 370.184 362.48 369.416 359.728 369.416C357.04 369.416 354.608 370.152 352.432 371.624C350.32 373.032 348.272 375.368 346.288 378.632L336.208 369.896C338.896 365.352 342.32 361.928 346.48 359.624C350.64 357.32 355.408 356.168 360.784 356.168C365.456 356.168 369.488 357.032 372.88 358.76C376.336 360.488 378.992 362.952 380.848 366.152C382.768 369.352 383.728 373.096 383.728 377.384C383.728 380.072 383.376 382.568 382.672 384.872C381.968 387.112 380.816 389.352 379.216 391.592C377.68 393.768 375.6 396.168 372.976 398.792L354.928 416.744L336.304 416.552ZM336.304 425V416.552L349.072 412.136H385.072V425H336.304Z" fill="#FFA800"/>
<path d="M420.252 690.96C417.116 690.96 414.236 690.352 411.612 689.136C408.988 687.92 406.844 686.256 405.18 684.144C403.516 681.968 402.556 679.504 402.3 676.752V657.072C402.556 654.32 403.516 651.824 405.18 649.584C406.844 647.344 408.988 645.584 411.612 644.304C414.236 643.024 417.116 642.384 420.252 642.384C424.668 642.384 428.572 643.44 431.964 645.552C435.42 647.664 438.108 650.544 440.028 654.192C442.012 657.84 443.004 662 443.004 666.672C443.004 671.344 442.012 675.504 440.028 679.152C438.108 682.8 435.42 685.68 431.964 687.792C428.572 689.904 424.668 690.96 420.252 690.96ZM417.564 677.712C419.676 677.712 421.5 677.232 423.036 676.272C424.636 675.312 425.884 674 426.78 672.336C427.676 670.672 428.124 668.784 428.124 666.672C428.124 664.496 427.676 662.576 426.78 660.912C425.884 659.248 424.636 657.968 423.036 657.072C421.5 656.112 419.708 655.632 417.66 655.632C415.612 655.632 413.788 656.112 412.188 657.072C410.652 657.968 409.436 659.248 408.54 660.912C407.644 662.576 407.196 664.496 407.196 666.672C407.196 668.784 407.612 670.672 408.444 672.336C409.34 674 410.588 675.312 412.188 676.272C413.788 677.232 415.58 677.712 417.564 677.712ZM393.372 709.68V643.344H408.06V655.344L405.66 666.672L407.868 678V709.68H393.372Z" fill="#FFA800"/>
<path d="M336.304 681.552L362.32 654.672C363.92 653.072 365.2 651.6 366.16 650.256C367.12 648.912 367.824 647.664 368.272 646.512C368.72 645.296 368.944 644.08 368.944 642.864C368.944 640.24 368.08 638.192 366.352 636.72C364.688 635.184 362.48 634.416 359.728 634.416C357.04 634.416 354.608 635.152 352.432 636.624C350.32 638.032 348.272 640.368 346.288 643.632L336.208 634.896C338.896 630.352 342.32 626.928 346.48 624.624C350.64 622.32 355.408 621.168 360.784 621.168C365.456 621.168 369.488 622.032 372.88 623.76C376.336 625.488 378.992 627.952 380.848 631.152C382.768 634.352 383.728 638.096 383.728 642.384C383.728 645.072 383.376 647.568 382.672 649.872C381.968 652.112 380.816 654.352 379.216 656.592C377.68 658.768 375.6 661.168 372.976 663.792L354.928 681.744L336.304 681.552ZM336.304 690V681.552L349.072 677.136H385.072V690H336.304Z" fill="#FFA800"/>
<path d="M420.252 955.96C417.116 955.96 414.236 955.352 411.612 954.136C408.988 952.92 406.844 951.256 405.18 949.144C403.516 946.968 402.556 944.504 402.3 941.752V922.072C402.556 919.32 403.516 916.824 405.18 914.584C406.844 912.344 408.988 910.584 411.612 909.304C414.236 908.024 417.116 907.384 420.252 907.384C424.668 907.384 428.572 908.44 431.964 910.552C435.42 912.664 438.108 915.544 440.028 919.192C442.012 922.84 443.004 927 443.004 931.672C443.004 936.344 442.012 940.504 440.028 944.152C438.108 947.8 435.42 950.68 431.964 952.792C428.572 954.904 424.668 955.96 420.252 955.96ZM417.564 942.712C419.676 942.712 421.5 942.232 423.036 941.272C424.636 940.312 425.884 939 426.78 937.336C427.676 935.672 428.124 933.784 428.124 931.672C428.124 929.496 427.676 927.576 426.78 925.912C425.884 924.248 424.636 922.968 423.036 922.072C421.5 921.112 419.708 920.632 417.66 920.632C415.612 920.632 413.788 921.112 412.188 922.072C410.652 922.968 409.436 924.248 408.54 925.912C407.644 927.576 407.196 929.496 407.196 931.672C407.196 933.784 407.612 935.672 408.444 937.336C409.34 939 410.588 940.312 412.188 941.272C413.788 942.232 415.58 942.712 417.564 942.712ZM393.372 974.68V908.344H408.06V920.344L405.66 931.672L407.868 943V974.68H393.372Z" fill="#FFA800"/>
<path d="M336.304 946.552L362.32 919.672C363.92 918.072 365.2 916.6 366.16 915.256C367.12 913.912 367.824 912.664 368.272 911.512C368.72 910.296 368.944 909.08 368.944 907.864C368.944 905.24 368.08 903.192 366.352 901.72C364.688 900.184 362.48 899.416 359.728 899.416C357.04 899.416 354.608 900.152 352.432 901.624C350.32 903.032 348.272 905.368 346.288 908.632L336.208 899.896C338.896 895.352 342.32 891.928 346.48 889.624C350.64 887.32 355.408 886.168 360.784 886.168C365.456 886.168 369.488 887.032 372.88 888.76C376.336 890.488 378.992 892.952 380.848 896.152C382.768 899.352 383.728 903.096 383.728 907.384C383.728 910.072 383.376 912.568 382.672 914.872C381.968 917.112 380.816 919.352 379.216 921.592C377.68 923.768 375.6 926.168 372.976 928.792L354.928 946.744L336.304 946.552ZM336.304 955V946.552L349.072 942.136H385.072V955H336.304Z" fill="#FFA800"/>
</svg>
