<svg width="1045" height="1045" viewBox="0 0 1045 1045" fill="none" xmlns="http://www.w3.org/2000/svg">
<path d="M0 25C0 11.1929 11.1929 0 25 0H225C238.807 0 250 11.1929 250 25V225C250 238.807 238.807 250 225 250H25C11.1929 250 0 238.807 0 225V25Z" fill="#FF4C30" fill-opacity="0.9"/>
<path d="M0 555C0 541.193 11.1929 530 25 530H225C238.807 530 250 541.193 250 555V755C250 768.807 238.807 780 225 780H25C11.1929 780 0 768.807 0 755V555Z" fill="#067FE8"/>
<path d="M0 290C0 276.193 11.1929 265 25 265H225C238.807 265 250 276.193 250 290V490C250 503.807 238.807 515 225 515H25C11.1929 515 0 503.807 0 490V290Z" fill="#92A643"/>
<path d="M0 820C0 806.193 11.1929 795 25 795H225C238.807 795 250 806.193 250 820V1020C250 1033.81 238.807 1045 225 1045H25C11.1929 1045 0 1033.81 0 1020V820Z" fill="#259855"/>
<path d="M530 25C530 11.1929 541.193 0 555 0H755C768.807 0 780 11.1929 780 25V225C780 238.807 768.807 250 755 250H555C541.193 250 530 238.807 530 225V25Z" fill="#92A643"/>
<path d="M530 555C530 541.193 541.193 530 555 530H755C768.807 530 780 541.193 780 555V755C780 768.807 768.807 780 755 780H555C541.193 780 530 768.807 530 755V555Z" fill="#E8472E"/>
<path fill-rule="evenodd" clip-rule="evenodd" d="M755 542H555C547.82 542 542 547.82 542 555V755C542 762.18 547.82 768 555 768H755C762.18 768 768 762.18 768 755V555C768 547.82 762.18 542 755 542ZM555 530C541.193 530 530 541.193 530 555V755C530 768.807 541.193 780 555 780H755C768.807 780 780 768.807 780 755V555C780 541.193 768.807 530 755 530H555Z" fill="#FFA800"/>
<path d="M530 290C530 276.193 541.193 265 555 265H755C768.807 265 780 276.193 780 290V490C780 503.807 768.807 515 755 515H555C541.193 515 530 503.807 530 490V290Z" fill="#92A643"/>
<path d="M530 820C530 806.193 541.193 795 555 795H755C768.807 795 780 806.193 780 820V1020C780 1033.81 768.807 1045 755 1045H555C541.193 1045 530 1033.81 530 1020V820Z" fill="#E8472E"/>
<path fill-rule="evenodd" clip-rule="evenodd" d="M755 807H555C547.82 807 542 812.82 542 820V1020C542 1027.18 547.82 1033 555 1033H755C762.18 1033 768 1027.18 768 1020V820C768 812.82 762.18 807 755 807ZM555 795C541.193 795 530 806.193 530 820V1020C530 1033.81 541.193 1045 555 1045H755C768.807 1045 780 1033.81 780 1020V820C780 806.193 768.807 795 755 795H555Z" fill="#FFA800"/>
<path d="M265 25C265 11.1929 276.193 0 290 0H490C503.807 0 515 11.1929 515 25V225C515 238.807 503.807 250 490 250H290C276.193 250 265 238.807 265 225V25Z" fill="#FF4C30" fill-opacity="0.9"/>
<path d="M265 555C265 541.193 276.193 530 290 530H490C503.807 530 515 541.193 515 555V755C515 768.807 503.807 780 490 780H290C276.193 780 265 768.807 265 755V555Z" fill="#038AFF" fill-opacity="0.9"/>
<path d="M265 290C265 276.193 276.193 265 290 265H490C503.807 265 515 276.193 515 290V490C515 503.807 503.807 515 490 515H290C276.193 515 265 503.807 265 490V290Z" fill="#92A643"/>
<path d="M265 820C265 806.193 276.193 795 290 795H490C503.807 795 515 806.193 515 820V1020C515 1033.81 503.807 1045 490 1045H290C276.193 1045 265 1033.81 265 1020V820Z" fill="#26A65B" fill-opacity="0.9"/>
<path d="M795 25C795 11.1929 806.193 0 820 0H1020C1033.81 0 1045 11.1929 1045 25V225C1045 238.807 1033.81 250 1020 250H820C806.193 250 795 238.807 795 225V25Z" fill="#884400"/>
<path d="M795 555C795 541.193 806.193 530 820 530H1020C1033.81 530 1045 541.193 1045 555V755C1045 768.807 1033.81 780 1020 780H820C806.193 780 795 768.807 795 755V555Z" fill="#E8472E"/>
<path d="M795 290C795 276.193 806.193 265 820 265H1020C1033.81 265 1045 276.193 1045 290V490C1045 503.807 1033.81 515 1020 515H820C806.193 515 795 503.807 795 490V290Z" fill="#FF4C30" fill-opacity="0.9"/>
<path fill-rule="evenodd" clip-rule="evenodd" d="M1020 277H820C812.82 277 807 282.82 807 290V490C807 497.18 812.82 503 820 503H1020C1027.18 503 1033 497.18 1033 490V290C1033 282.82 1027.18 277 1020 277ZM820 265C806.193 265 795 276.193 795 290V490C795 503.807 806.193 515 820 515H1020C1033.81 515 1045 503.807 1045 490V290C1045 276.193 1033.81 265 1020 265H820Z" fill="#FFA800"/>
<path d="M795 820C795 806.193 806.193 795 820 795H1020C1033.81 795 1045 806.193 1045 820V1020C1045 1033.81 1033.81 1045 1020 1045H820C806.193 1045 795 1033.81 795 1020V820Z" fill="#884400"/>
<path d="M950.689 425.96C947.553 425.96 944.673 425.352 942.049 424.136C939.425 422.92 937.281 421.256 935.617 419.144C933.953 416.968 932.993 414.504 932.737 411.752V392.072C932.993 389.32 933.953 386.824 935.617 384.584C937.281 382.344 939.425 380.584 942.049 379.304C944.673 378.024 947.553 377.384 950.689 377.384C955.105 377.384 959.009 378.44 962.401 380.552C965.857 382.664 968.545 385.544 970.465 389.192C972.449 392.84 973.441 397 973.441 401.672C973.441 406.344 972.449 410.504 970.465 414.152C968.545 417.8 965.857 420.68 962.401 422.792C959.009 424.904 955.105 425.96 950.689 425.96ZM948.001 412.712C950.113 412.712 951.937 412.232 953.473 411.272C955.073 410.312 956.321 409 957.217 407.336C958.113 405.672 958.561 403.784 958.561 401.672C958.561 399.496 958.113 397.576 957.217 395.912C956.321 394.248 955.073 392.968 953.473 392.072C951.937 391.112 950.145 390.632 948.097 390.632C946.049 390.632 944.225 391.112 942.625 392.072C941.089 392.968 939.873 394.248 938.977 395.912C938.081 397.576 937.633 399.496 937.633 401.672C937.633 403.784 938.049 405.672 938.881 407.336C939.777 409 941.025 410.312 942.625 411.272C944.225 412.232 946.017 412.712 948.001 412.712ZM923.809 444.68V378.344H938.497V390.344L936.097 401.672L938.305 413V444.68H923.809Z" fill="#FFA800"/>
<path d="M889.288 426.056C884.616 426.056 880.328 425.256 876.424 423.656C872.52 421.992 869.224 419.624 866.536 416.552L876.232 406.856C877.448 408.648 879.208 410.12 881.512 411.272C883.88 412.36 886.376 412.904 889 412.904C891.368 412.904 893.416 412.488 895.144 411.656C896.872 410.824 898.216 409.64 899.176 408.104C900.2 406.568 900.712 404.744 900.712 402.632C900.712 400.52 900.2 398.728 899.176 397.256C898.216 395.72 896.776 394.536 894.856 393.704C893 392.872 890.76 392.456 888.136 392.456C886.92 392.456 885.64 392.552 884.296 392.744C883.016 392.872 881.928 393.096 881.032 393.416L887.656 385.064C889.448 384.552 891.144 384.136 892.744 383.816C894.408 383.432 895.944 383.24 897.352 383.24C900.808 383.24 903.912 384.072 906.664 385.736C909.416 387.336 911.592 389.64 913.192 392.648C914.856 395.592 915.688 399.112 915.688 403.208C915.688 407.688 914.568 411.656 912.328 415.112C910.152 418.568 907.08 421.256 903.112 423.176C899.208 425.096 894.6 426.056 889.288 426.056ZM881.032 393.416V385.064L897.544 365.672L914.44 365.576L897.256 385.16L881.032 393.416ZM870.76 369.992V357.224H914.44V365.576L902.632 369.992H870.76Z" fill="#FFA800"/>
<path d="M685.689 690.96C682.553 690.96 679.673 690.352 677.049 689.136C674.425 687.92 672.281 686.256 670.617 684.144C668.953 681.968 667.993 679.504 667.737 676.752V657.072C667.993 654.32 668.953 651.824 670.617 649.584C672.281 647.344 674.425 645.584 677.049 644.304C679.673 643.024 682.553 642.384 685.689 642.384C690.105 642.384 694.009 643.44 697.401 645.552C700.857 647.664 703.545 650.544 705.465 654.192C707.449 657.84 708.441 662 708.441 666.672C708.441 671.344 707.449 675.504 705.465 679.152C703.545 682.8 700.857 685.68 697.401 687.792C694.009 689.904 690.105 690.96 685.689 690.96ZM683.001 677.712C685.113 677.712 686.937 677.232 688.473 676.272C690.073 675.312 691.321 674 692.217 672.336C693.113 670.672 693.561 668.784 693.561 666.672C693.561 664.496 693.113 662.576 692.217 660.912C691.321 659.248 690.073 657.968 688.473 657.072C686.937 656.112 685.145 655.632 683.097 655.632C681.049 655.632 679.225 656.112 677.625 657.072C676.089 657.968 674.873 659.248 673.977 660.912C673.081 662.576 672.633 664.496 672.633 666.672C672.633 668.784 673.049 670.672 673.881 672.336C674.777 674 676.025 675.312 677.625 676.272C679.225 677.232 681.017 677.712 683.001 677.712ZM658.809 709.68V643.344H673.497V655.344L671.097 666.672L673.305 678V709.68H658.809Z" fill="#FFA800"/>
<path d="M624.288 691.056C619.616 691.056 615.328 690.256 611.424 688.656C607.52 686.992 604.224 684.624 601.536 681.552L611.232 671.856C612.448 673.648 614.208 675.12 616.512 676.272C618.88 677.36 621.376 677.904 624 677.904C626.368 677.904 628.416 677.488 630.144 676.656C631.872 675.824 633.216 674.64 634.176 673.104C635.2 671.568 635.712 669.744 635.712 667.632C635.712 665.52 635.2 663.728 634.176 662.256C633.216 660.72 631.776 659.536 629.856 658.704C628 657.872 625.76 657.456 623.136 657.456C621.92 657.456 620.64 657.552 619.296 657.744C618.016 657.872 616.928 658.096 616.032 658.416L622.656 650.064C624.448 649.552 626.144 649.136 627.744 648.816C629.408 648.432 630.944 648.24 632.352 648.24C635.808 648.24 638.912 649.072 641.664 650.736C644.416 652.336 646.592 654.64 648.192 657.648C649.856 660.592 650.688 664.112 650.688 668.208C650.688 672.688 649.568 676.656 647.328 680.112C645.152 683.568 642.08 686.256 638.112 688.176C634.208 690.096 629.6 691.056 624.288 691.056ZM616.032 658.416V650.064L632.544 630.672L649.44 630.576L632.256 650.16L616.032 658.416ZM605.76 634.992V622.224H649.44V630.576L637.632 634.992H605.76Z" fill="#FFA800"/>
<path d="M685.689 955.96C682.553 955.96 679.673 955.352 677.049 954.136C674.425 952.92 672.281 951.256 670.617 949.144C668.953 946.968 667.993 944.504 667.737 941.752V922.072C667.993 919.32 668.953 916.824 670.617 914.584C672.281 912.344 674.425 910.584 677.049 909.304C679.673 908.024 682.553 907.384 685.689 907.384C690.105 907.384 694.009 908.44 697.401 910.552C700.857 912.664 703.545 915.544 705.465 919.192C707.449 922.84 708.441 927 708.441 931.672C708.441 936.344 707.449 940.504 705.465 944.152C703.545 947.8 700.857 950.68 697.401 952.792C694.009 954.904 690.105 955.96 685.689 955.96ZM683.001 942.712C685.113 942.712 686.937 942.232 688.473 941.272C690.073 940.312 691.321 939 692.217 937.336C693.113 935.672 693.561 933.784 693.561 931.672C693.561 929.496 693.113 927.576 692.217 925.912C691.321 924.248 690.073 922.968 688.473 922.072C686.937 921.112 685.145 920.632 683.097 920.632C681.049 920.632 679.225 921.112 677.625 922.072C676.089 922.968 674.873 924.248 673.977 925.912C673.081 927.576 672.633 929.496 672.633 931.672C672.633 933.784 673.049 935.672 673.881 937.336C674.777 939 676.025 940.312 677.625 941.272C679.225 942.232 681.017 942.712 683.001 942.712ZM658.809 974.68V908.344H673.497V920.344L671.097 931.672L673.305 943V974.68H658.809Z" fill="#FFA800"/>
<path d="M624.288 956.056C619.616 956.056 615.328 955.256 611.424 953.656C607.52 951.992 604.224 949.624 601.536 946.552L611.232 936.856C612.448 938.648 614.208 940.12 616.512 941.272C618.88 942.36 621.376 942.904 624 942.904C626.368 942.904 628.416 942.488 630.144 941.656C631.872 940.824 633.216 939.64 634.176 938.104C635.2 936.568 635.712 934.744 635.712 932.632C635.712 930.52 635.2 928.728 634.176 927.256C633.216 925.72 631.776 924.536 629.856 923.704C628 922.872 625.76 922.456 623.136 922.456C621.92 922.456 620.64 922.552 619.296 922.744C618.016 922.872 616.928 923.096 616.032 923.416L622.656 915.064C624.448 914.552 626.144 914.136 627.744 913.816C629.408 913.432 630.944 913.24 632.352 913.24C635.808 913.24 638.912 914.072 641.664 915.736C644.416 917.336 646.592 919.64 648.192 922.648C649.856 925.592 650.688 929.112 650.688 933.208C650.688 937.688 649.568 941.656 647.328 945.112C645.152 948.568 642.08 951.256 638.112 953.176C634.208 955.096 629.6 956.056 624.288 956.056ZM616.032 923.416V915.064L632.544 895.672L649.44 895.576L632.256 915.16L616.032 923.416ZM605.76 899.992V887.224H649.44V895.576L637.632 899.992H605.76Z" fill="#FFA800"/>
</svg>
