<svg width="1045" height="1153" viewBox="0 0 1045 1153" fill="none" xmlns="http://www.w3.org/2000/svg">
<path d="M25 1153C11.1929 1153 1.33474e-07 1141.81 2.98122e-07 1128L2.6831e-06 928.004C2.84775e-06 914.197 11.1929 903.004 25 903.004L225 903.004C238.807 903.004 250 914.197 250 928.004L250 1128C250 1141.81 238.807 1153 225 1153L25 1153Z" fill="#92A643"/>
<path d="M555 1153C541.193 1153 530 1141.81 530 1128L530 928.004C530 914.197 541.193 903.004 555 903.004L755 903.004C768.807 903.004 780 914.197 780 928.004L780 1128C780 1141.81 768.807 1153 755 1153L555 1153Z" fill="#884400"/>
<path d="M290 1153C276.193 1153 265 1141.81 265 1128L265 928.004C265 914.197 276.193 903.004 290 903.004L490 903.004C503.807 903.004 515 914.197 515 928.004L515 1128C515 1141.81 503.807 1153 490 1153L290 1153Z" fill="#92A643"/>
<path fill-rule="evenodd" clip-rule="evenodd" d="M277 928.004L277 1128C277 1135.18 282.82 1141 290 1141L490 1141C497.18 1141 503 1135.18 503 1128L503 928.004C503 920.824 497.18 915.004 490 915.004L290 915.004C282.82 915.004 277 920.824 277 928.004ZM265 1128C265 1141.81 276.193 1153 290 1153L490 1153C503.807 1153 515 1141.81 515 1128L515 928.004C515 914.197 503.807 903.004 490 903.004L290 903.004C276.193 903.004 265 914.197 265 928.004L265 1128Z" fill="#FFA800"/>
<path d="M820 1153C806.193 1153 795 1141.81 795 1128L795 928.004C795 914.197 806.193 903.004 820 903.004L1020 903.004C1033.81 903.004 1045 914.197 1045 928.004L1045 1128C1045 1141.81 1033.81 1153 1020 1153L820 1153Z" fill="#038AFF" fill-opacity="0.9"/>
<path fill-rule="evenodd" clip-rule="evenodd" d="M807 928.004L807 1128C807 1135.18 812.82 1141 820 1141L1020 1141C1027.18 1141 1033 1135.18 1033 1128L1033 928.004C1033 920.824 1027.18 915.004 1020 915.004L820 915.004C812.82 915.004 807 920.824 807 928.004ZM795 1128C795 1141.81 806.193 1153 820 1153L1020 1153C1033.81 1153 1045 1141.81 1045 1128L1045 928.004C1045 914.197 1033.81 903.004 1020 903.004L820 903.004C806.193 903.004 795 914.197 795 928.004L795 1128Z" fill="#FFA800"/>
<path d="M25 623.004C11.1929 623.004 1.33474e-07 611.811 2.98122e-07 598.004L2.6831e-06 398.004C2.84775e-06 384.197 11.1929 373.004 25 373.004L225 373.004C238.807 373.004 250 384.197 250 398.004L250 598.004C250 611.811 238.807 623.004 225 623.004L25 623.004Z" fill="#F1D693" fill-opacity="0.9"/>
<path d="M555 623.004C541.193 623.004 530 611.811 530 598.004L530 398.004C530 384.197 541.193 373.004 555 373.004L755 373.004C768.807 373.004 780 384.197 780 398.004L780 598.004C780 611.811 768.807 623.004 755 623.004L555 623.004Z" fill="#067FE8"/>
<path d="M290 623.004C276.193 623.004 265 611.811 265 598.004L265 398.004C265 384.197 276.193 373.004 290 373.004L490 373.004C503.807 373.004 515 384.197 515 398.004L515 598.004C515 611.811 503.807 623.004 490 623.004L290 623.004Z" fill="#067FE8"/>
<path fill-rule="evenodd" clip-rule="evenodd" d="M277 398.004L277 598.004C277 605.184 282.82 611.004 290 611.004L490 611.004C497.18 611.004 503 605.184 503 598.004L503 398.004C503 390.824 497.18 385.004 490 385.004L290 385.004C282.82 385.004 277 390.824 277 398.004ZM265 598.004C265 611.811 276.193 623.004 290 623.004L490 623.004C503.807 623.004 515 611.811 515 598.004L515 398.004C515 384.197 503.807 373.004 490 373.004L290 373.004C276.193 373.004 265 384.197 265 398.004L265 598.004Z" fill="#FFA800"/>
<path d="M820 623.004C806.193 623.004 795 611.811 795 598.004L795 398.004C795 384.197 806.193 373.004 820 373.004L1020 373.004C1033.81 373.004 1045 384.197 1045 398.004L1045 598.004C1045 611.811 1033.81 623.004 1020 623.004L820 623.004Z" fill="#DCC487"/>
<path fill-rule="evenodd" clip-rule="evenodd" d="M807 398.004L807 598.004C807 605.184 812.82 611.004 820 611.004L1020 611.004C1027.18 611.004 1033 605.184 1033 598.004L1033 398.004C1033 390.824 1027.18 385.004 1020 385.004L820 385.004C812.82 385.004 807 390.824 807 398.004ZM795 598.004C795 611.811 806.193 623.004 820 623.004L1020 623.004C1033.81 623.004 1045 611.811 1045 598.004L1045 398.004C1045 384.197 1033.81 373.004 1020 373.004L820 373.004C806.193 373.004 795 384.197 795 398.004L795 598.004Z" fill="#FFA800"/>
<path d="M25 888.004C11.1929 888.004 1.33474e-07 876.811 2.98122e-07 863.004L2.6831e-06 663.004C2.84775e-06 649.197 11.1929 638.004 25 638.004L225 638.004C238.807 638.004 250 649.197 250 663.004L250 863.004C250 876.811 238.807 888.004 225 888.004L25 888.004Z" fill="#884400"/>
<path d="M555 888.004C541.193 888.004 530 876.811 530 863.004L530 663.004C530 649.197 541.193 638.004 555 638.004L755 638.004C768.807 638.004 780 649.197 780 663.004L780 863.004C780 876.811 768.807 888.004 755 888.004L555 888.004Z" fill="#038AFF" fill-opacity="0.9"/>
<path d="M290 888.004C276.193 888.004 265 876.811 265 863.004L265 663.004C265 649.197 276.193 638.004 290 638.004L490 638.004C503.807 638.004 515 649.197 515 663.004L515 863.004C515 876.811 503.807 888.004 490 888.004L290 888.004Z" fill="#92A643"/>
<path fill-rule="evenodd" clip-rule="evenodd" d="M277 663.004L277 863.004C277 870.184 282.82 876.004 290 876.004L490 876.004C497.18 876.004 503 870.184 503 863.004L503 663.004C503 655.824 497.18 650.004 490 650.004L290 650.004C282.82 650.004 277 655.824 277 663.004ZM265 863.004C265 876.811 276.193 888.004 290 888.004L490 888.004C503.807 888.004 515 876.811 515 863.004L515 663.004C515 649.197 503.807 638.004 490 638.004L290 638.004C276.193 638.004 265 649.197 265 663.004L265 863.004Z" fill="#FFA800"/>
<path d="M820 888.004C806.193 888.004 795 876.811 795 863.004L795 663.004C795 649.197 806.193 638.004 820 638.004L1020 638.004C1033.81 638.004 1045 649.197 1045 663.004L1045 863.004C1045 876.811 1033.81 888.004 1020 888.004L820 888.004Z" fill="#F1D693" fill-opacity="0.9"/>
<path fill-rule="evenodd" clip-rule="evenodd" d="M807 663.004L807 863.004C807 870.184 812.82 876.004 820 876.004L1020 876.004C1027.18 876.004 1033 870.184 1033 863.004L1033 663.004C1033 655.824 1027.18 650.004 1020 650.004L820 650.004C812.82 650.004 807 655.824 807 663.004ZM795 863.004C795 876.811 806.193 888.004 820 888.004L1020 888.004C1033.81 888.004 1045 876.811 1045 863.004L1045 663.004C1045 649.197 1033.81 638.004 1020 638.004L820 638.004C806.193 638.004 795 649.197 795 663.004L795 863.004Z" fill="#FFA800"/>
<path d="M25 358.004C11.1929 358.004 1.33474e-07 346.811 2.98122e-07 333.004L2.6831e-06 133.004C2.84775e-06 119.197 11.1929 108.004 25 108.004L225 108.004C238.807 108.004 250 119.197 250 133.004L250 333.004C250 346.811 238.807 358.004 225 358.004L25 358.004Z" fill="#F1D693" fill-opacity="0.9"/>
<path d="M555 358.004C541.193 358.004 530 346.811 530 333.004L530 133.004C530 119.197 541.193 108.004 555 108.004L755 108.004C768.807 108.004 780 119.197 780 133.004L780 333.004C780 346.811 768.807 358.004 755 358.004L555 358.004Z" fill="#92A643"/>
<path d="M290 358.004C276.193 358.004 265 346.811 265 333.004L265 133.004C265 119.197 276.193 108.004 290 108.004L490 108.004C503.807 108.004 515 119.197 515 133.004L515 333.004C515 346.811 503.807 358.004 490 358.004L290 358.004Z" fill="#038AFF" fill-opacity="0.9"/>
<path fill-rule="evenodd" clip-rule="evenodd" d="M277 133.004L277 333.004C277 340.184 282.82 346.004 290 346.004L490 346.004C497.18 346.004 503 340.184 503 333.004L503 133.004C503 125.824 497.18 120.004 490 120.004L290 120.004C282.82 120.004 277 125.824 277 133.004ZM265 333.004C265 346.811 276.193 358.004 290 358.004L490 358.004C503.807 358.004 515 346.811 515 333.004L515 133.004C515 119.197 503.807 108.004 490 108.004L290 108.004C276.193 108.004 265 119.197 265 133.004L265 333.004Z" fill="#FFA800"/>
<path d="M820 358.004C806.193 358.004 795 346.811 795 333.004L795 133.004C795 119.197 806.193 108.004 820 108.004L1020 108.004C1033.81 108.004 1045 119.197 1045 133.004L1045 333.004C1045 346.811 1033.81 358.004 1020 358.004L820 358.004Z" fill="#92A643"/>
<path fill-rule="evenodd" clip-rule="evenodd" d="M807 133.004L807 333.004C807 340.184 812.82 346.004 820 346.004L1020 346.004C1027.18 346.004 1033 340.184 1033 333.004L1033 133.004C1033 125.824 1027.18 120.004 1020 120.004L820 120.004C812.82 120.004 807 125.824 807 133.004ZM795 333.004C795 346.811 806.193 358.004 820 358.004L1020 358.004C1033.81 358.004 1045 346.811 1045 333.004L1045 133.004C1045 119.197 1033.81 108.004 1020 108.004L820 108.004C806.193 108.004 795 119.197 795 133.004L795 333.004Z" fill="#FFA800"/>
<path d="M422.564 68.9603C419.428 68.9603 416.548 68.3523 413.924 67.1363C411.3 65.9203 409.156 64.2563 407.492 62.1443C405.828 59.9683 404.868 57.5043 404.612 54.7523V35.0723C404.868 32.3203 405.828 29.8243 407.492 27.5843C409.156 25.3443 411.3 23.5843 413.924 22.3043C416.548 21.0243 419.428 20.3843 422.564 20.3843C426.98 20.3843 430.884 21.4403 434.276 23.5523C437.732 25.6643 440.42 28.5443 442.34 32.1923C444.324 35.8403 445.316 40.0003 445.316 44.6723C445.316 49.3443 444.324 53.5043 442.34 57.1523C440.42 60.8003 437.732 63.6803 434.276 65.7923C430.884 67.9043 426.98 68.9603 422.564 68.9603ZM419.876 55.7123C421.988 55.7123 423.812 55.2323 425.348 54.2723C426.948 53.3123 428.196 52.0003 429.092 50.3363C429.988 48.6723 430.436 46.7843 430.436 44.6723C430.436 42.4963 429.988 40.5763 429.092 38.9123C428.196 37.2483 426.948 35.9683 425.348 35.0723C423.812 34.1123 422.02 33.6323 419.972 33.6323C417.924 33.6323 416.1 34.1123 414.5 35.0723C412.964 35.9683 411.748 37.2483 410.852 38.9123C409.956 40.5763 409.508 42.4963 409.508 44.6723C409.508 46.7843 409.924 48.6723 410.756 50.3363C411.652 52.0003 412.9 53.3123 414.5 54.2723C416.1 55.2323 417.892 55.7123 419.876 55.7123ZM395.684 87.6803V21.3443H410.372V33.3443L407.972 44.6723L410.18 56.0003V87.6803H395.684Z" fill="#FFA800"/>
<path d="M334.016 44.4801L356.288 0.224121H372.704L349.952 44.4801H334.016ZM334.016 52.9281V44.4801L339.008 40.1601H388.352V52.9281H334.016ZM365.984 68.0001V26.0481H380.768V68.0001H365.984Z" fill="#FFA800"/>
<path d="M952.564 68.9603C949.428 68.9603 946.548 68.3523 943.924 67.1363C941.3 65.9203 939.156 64.2563 937.492 62.1443C935.828 59.9683 934.868 57.5043 934.612 54.7523V35.0723C934.868 32.3203 935.828 29.8243 937.492 27.5843C939.156 25.3443 941.3 23.5843 943.924 22.3043C946.548 21.0243 949.428 20.3843 952.564 20.3843C956.98 20.3843 960.884 21.4403 964.276 23.5523C967.732 25.6643 970.42 28.5443 972.34 32.1923C974.324 35.8403 975.316 40.0003 975.316 44.6723C975.316 49.3443 974.324 53.5043 972.34 57.1523C970.42 60.8003 967.732 63.6803 964.276 65.7923C960.884 67.9043 956.98 68.9603 952.564 68.9603ZM949.876 55.7123C951.988 55.7123 953.812 55.2323 955.348 54.2723C956.948 53.3123 958.196 52.0003 959.092 50.3363C959.988 48.6723 960.436 46.7843 960.436 44.6723C960.436 42.4963 959.988 40.5763 959.092 38.9123C958.196 37.2483 956.948 35.9683 955.348 35.0723C953.812 34.1123 952.02 33.6323 949.972 33.6323C947.924 33.6323 946.1 34.1123 944.5 35.0723C942.964 35.9683 941.748 37.2483 940.852 38.9123C939.956 40.5763 939.508 42.4963 939.508 44.6723C939.508 46.7843 939.924 48.6723 940.756 50.3363C941.652 52.0003 942.9 53.3123 944.5 54.2723C946.1 55.2323 947.892 55.7123 949.876 55.7123ZM925.684 87.6803V21.3443H940.372V33.3443L937.972 44.6723L940.18 56.0003V87.6803H925.684Z" fill="#FFA800"/>
<path d="M864.016 44.4801L886.288 0.224121H902.704L879.952 44.4801H864.016ZM864.016 52.9281V44.4801L869.008 40.1601H918.352V52.9281H864.016ZM895.984 68.0001V26.0481H910.768V68.0001H895.984Z" fill="#FFA800"/>
</svg>
