<svg width="1045" height="1045" viewBox="0 0 1045 1045" fill="none" xmlns="http://www.w3.org/2000/svg">
<path d="M25 1045C11.1929 1045 1.33474e-07 1033.81 2.98122e-07 1020L2.6831e-06 820C2.84775e-06 806.193 11.1929 795 25 795L225 795C238.807 795 250 806.193 250 820L250 1020C250 1033.81 238.807 1045 225 1045L25 1045Z" fill="#DCC487"/>
<path d="M555 1045C541.193 1045 530 1033.81 530 1020L530 820C530 806.193 541.193 795 555 795L755 795C768.807 795 780 806.193 780 820L780 1020C780 1033.81 768.807 1045 755 1045L555 1045Z" fill="#067FE8"/>
<path fill-rule="evenodd" clip-rule="evenodd" d="M542 820L542 1020C542 1027.18 547.82 1033 555 1033L755 1033C762.18 1033 768 1027.18 768 1020L768 820C768 812.82 762.18 807 755 807L555 807C547.82 807 542 812.82 542 820ZM530 1020C530 1033.81 541.193 1045 555 1045L755 1045C768.807 1045 780 1033.81 780 1020L780 820C780 806.193 768.807 795 755 795L555 795C541.193 795 530 806.193 530 820L530 1020Z" fill="#FFA800"/>
<path d="M290 1045C276.193 1045 265 1033.81 265 1020L265 820C265 806.193 276.193 795 290 795L490 795C503.807 795 515 806.193 515 820L515 1020C515 1033.81 503.807 1045 490 1045L290 1045Z" fill="#067FE8"/>
<path d="M820 1045C806.193 1045 795 1033.81 795 1020L795 820C795 806.193 806.193 795 820 795L1020 795C1033.81 795 1045 806.193 1045 820L1045 1020C1045 1033.81 1033.81 1045 1020 1045L820 1045Z" fill="#884400"/>
<path d="M25 515C11.1929 515 1.33474e-07 503.807 2.98122e-07 490L2.6831e-06 290C2.84775e-06 276.193 11.1929 265 25 265L225 265C238.807 265 250 276.193 250 290L250 490C250 503.807 238.807 515 225 515L25 515Z" fill="#067FE8"/>
<path fill-rule="evenodd" clip-rule="evenodd" d="M12 290L12 490C12 497.18 17.8203 503 25 503L225 503C232.18 503 238 497.18 238 490L238 290C238 282.82 232.18 277 225 277L25 277C17.8203 277 12 282.82 12 290ZM2.98122e-07 490C1.33474e-07 503.807 11.1929 515 25 515L225 515C238.807 515 250 503.807 250 490L250 290C250 276.193 238.807 265 225 265L25 265C11.1929 265 2.84775e-06 276.193 2.6831e-06 290L2.98122e-07 490Z" fill="#FFA800"/>
<path d="M555 515C541.193 515 530 503.807 530 490L530 290C530 276.193 541.193 265 555 265L755 265C768.807 265 780 276.193 780 290L780 490C780 503.807 768.807 515 755 515L555 515Z" fill="#92A643"/>
<path d="M290 515C276.193 515 265 503.807 265 490L265 290C265 276.193 276.193 265 290 265L490 265C503.807 265 515 276.193 515 290L515 490C515 503.807 503.807 515 490 515L290 515Z" fill="#92A643"/>
<path d="M820 515C806.193 515 795 503.807 795 490L795 290C795 276.193 806.193 265 820 265L1020 265C1033.81 265 1045 276.193 1045 290L1045 490C1045 503.807 1033.81 515 1020 515L820 515Z" fill="#DCC487"/>
<path d="M25 780C11.1929 780 1.33474e-07 768.807 2.98122e-07 755L2.6831e-06 555C2.84775e-06 541.193 11.1929 530 25 530L225 530C238.807 530 250 541.193 250 555L250 755C250 768.807 238.807 780 225 780L25 780Z" fill="#884400"/>
<path d="M555 780C541.193 780 530 768.807 530 755L530 555C530 541.193 541.193 530 555 530L755 530C768.807 530 780 541.193 780 555L780 755C780 768.807 768.807 780 755 780L555 780Z" fill="#92A643"/>
<path d="M290 780C276.193 780 265 768.807 265 755L265 555C265 541.193 276.193 530 290 530L490 530C503.807 530 515 541.193 515 555L515 755C515 768.807 503.807 780 490 780L290 780Z" fill="#DCC487"/>
<path d="M820 780C806.193 780 795 768.807 795 755L795 555C795 541.193 806.193 530 820 530L1020 530C1033.81 530 1045 541.193 1045 555L1045 755C1045 768.807 1033.81 780 1020 780L820 780Z" fill="#F1D693" fill-opacity="0.9"/>
<path d="M25 250C11.1929 250 1.33474e-07 238.807 2.98122e-07 225L2.6831e-06 25C2.84775e-06 11.1929 11.1929 1.33474e-07 25 2.98122e-07L225 2.6831e-06C238.807 2.84775e-06 250 11.1929 250 25L250 225C250 238.807 238.807 250 225 250L25 250Z" fill="#067FE8"/>
<path d="M555 250C541.193 250 530 238.807 530 225L530 25C530 11.1929 541.193 1.33474e-07 555 2.98122e-07L755 2.6831e-06C768.807 2.84775e-06 780 11.1929 780 25L780 225C780 238.807 768.807 250 755 250L555 250Z" fill="#067FE8"/>
<path fill-rule="evenodd" clip-rule="evenodd" d="M542 25L542 225C542 232.18 547.82 238 555 238L755 238C762.18 238 768 232.18 768 225L768 25C768 17.8203 762.18 12 755 12L555 12C547.82 12 542 17.8203 542 25ZM530 225C530 238.807 541.193 250 555 250L755 250C768.807 250 780 238.807 780 225L780 25C780 11.1929 768.807 2.84775e-06 755 2.6831e-06L555 2.98122e-07C541.193 1.33474e-07 530 11.1929 530 25L530 225Z" fill="#FFA800"/>
<path d="M290 250C276.193 250 265 238.807 265 225L265 25C265 11.1929 276.193 1.33474e-07 290 2.98122e-07L490 2.6831e-06C503.807 2.84775e-06 515 11.1929 515 25L515 225C515 238.807 503.807 250 490 250L290 250Z" fill="#038AFF" fill-opacity="0.9"/>
<path d="M820 250C806.193 250 795 238.807 795 225L795 25C795 11.1929 806.193 1.33474e-07 820 2.98122e-07L1020 2.6831e-06C1033.81 2.84775e-06 1045 11.1929 1045 25L1045 225C1045 238.807 1033.81 250 1020 250L820 250Z" fill="#884400"/>
<path d="M685.689 160.956C682.553 160.956 679.673 160.348 677.049 159.132C674.425 157.916 672.281 156.252 670.617 154.14C668.953 151.964 667.993 149.5 667.737 146.748V127.068C667.993 124.316 668.953 121.82 670.617 119.58C672.281 117.34 674.425 115.58 677.049 114.3C679.673 113.02 682.553 112.38 685.689 112.38C690.105 112.38 694.009 113.436 697.401 115.548C700.857 117.66 703.545 120.54 705.465 124.188C707.449 127.836 708.441 131.996 708.441 136.668C708.441 141.34 707.449 145.5 705.465 149.148C703.545 152.796 700.857 155.676 697.401 157.788C694.009 159.9 690.105 160.956 685.689 160.956ZM683.001 147.708C685.113 147.708 686.937 147.228 688.473 146.268C690.073 145.308 691.321 143.996 692.217 142.332C693.113 140.668 693.561 138.78 693.561 136.668C693.561 134.492 693.113 132.572 692.217 130.908C691.321 129.244 690.073 127.964 688.473 127.068C686.937 126.108 685.145 125.628 683.097 125.628C681.049 125.628 679.225 126.108 677.625 127.068C676.089 127.964 674.873 129.244 673.977 130.908C673.081 132.572 672.633 134.492 672.633 136.668C672.633 138.78 673.049 140.668 673.881 142.332C674.777 143.996 676.025 145.308 677.625 146.268C679.225 147.228 681.017 147.708 683.001 147.708ZM658.809 179.676V113.34H673.497V125.34L671.097 136.668L673.305 147.996V179.676H658.809Z" fill="#FFA800"/>
<path d="M624.288 161.052C619.616 161.052 615.328 160.252 611.424 158.652C607.52 156.988 604.224 154.62 601.536 151.548L611.232 141.852C612.448 143.644 614.208 145.116 616.512 146.268C618.88 147.356 621.376 147.9 624 147.9C626.368 147.9 628.416 147.484 630.144 146.652C631.872 145.82 633.216 144.636 634.176 143.1C635.2 141.564 635.712 139.74 635.712 137.628C635.712 135.516 635.2 133.724 634.176 132.252C633.216 130.716 631.776 129.532 629.856 128.7C628 127.868 625.76 127.452 623.136 127.452C621.92 127.452 620.64 127.548 619.296 127.74C618.016 127.868 616.928 128.092 616.032 128.412L622.656 120.06C624.448 119.548 626.144 119.132 627.744 118.812C629.408 118.428 630.944 118.236 632.352 118.236C635.808 118.236 638.912 119.068 641.664 120.732C644.416 122.332 646.592 124.636 648.192 127.644C649.856 130.588 650.688 134.108 650.688 138.204C650.688 142.684 649.568 146.652 647.328 150.108C645.152 153.564 642.08 156.252 638.112 158.172C634.208 160.092 629.6 161.052 624.288 161.052ZM616.032 128.412V120.06L632.544 100.668L649.44 100.572L632.256 120.156L616.032 128.412ZM605.76 104.988V92.2197H649.44V100.572L637.632 104.988H605.76Z" fill="#FFA800"/>
<path d="M155.689 425.956C152.553 425.956 149.673 425.348 147.049 424.132C144.425 422.916 142.281 421.252 140.617 419.14C138.953 416.964 137.993 414.5 137.737 411.748V392.068C137.993 389.316 138.953 386.82 140.617 384.58C142.281 382.34 144.425 380.58 147.049 379.3C149.673 378.02 152.553 377.38 155.689 377.38C160.105 377.38 164.009 378.436 167.401 380.548C170.857 382.66 173.545 385.54 175.465 389.188C177.449 392.836 178.441 396.996 178.441 401.668C178.441 406.34 177.449 410.5 175.465 414.148C173.545 417.796 170.857 420.676 167.401 422.788C164.009 424.9 160.105 425.956 155.689 425.956ZM153.001 412.708C155.113 412.708 156.937 412.228 158.473 411.268C160.073 410.308 161.321 408.996 162.217 407.332C163.113 405.668 163.561 403.78 163.561 401.668C163.561 399.492 163.113 397.572 162.217 395.908C161.321 394.244 160.073 392.964 158.473 392.068C156.937 391.108 155.145 390.628 153.097 390.628C151.049 390.628 149.225 391.108 147.625 392.068C146.089 392.964 144.873 394.244 143.977 395.908C143.081 397.572 142.633 399.492 142.633 401.668C142.633 403.78 143.049 405.668 143.881 407.332C144.777 408.996 146.025 410.308 147.625 411.268C149.225 412.228 151.017 412.708 153.001 412.708ZM128.809 444.676V378.34H143.497V390.34L141.097 401.668L143.305 412.996V444.676H128.809Z" fill="#FFA800"/>
<path d="M94.2879 426.052C89.6159 426.052 85.3279 425.252 81.4239 423.652C77.5199 421.988 74.2239 419.62 71.5359 416.548L81.2319 406.852C82.4479 408.644 84.2079 410.116 86.5119 411.268C88.8799 412.356 91.3759 412.9 93.9999 412.9C96.3679 412.9 98.4159 412.484 100.144 411.652C101.872 410.82 103.216 409.636 104.176 408.1C105.2 406.564 105.712 404.74 105.712 402.628C105.712 400.516 105.2 398.724 104.176 397.252C103.216 395.716 101.776 394.532 99.8559 393.7C97.9999 392.868 95.7599 392.452 93.1359 392.452C91.9199 392.452 90.6399 392.548 89.2959 392.74C88.0159 392.868 86.9279 393.092 86.0319 393.412L92.6559 385.06C94.4479 384.548 96.1439 384.132 97.7439 383.812C99.4079 383.428 100.944 383.236 102.352 383.236C105.808 383.236 108.912 384.068 111.664 385.732C114.416 387.332 116.592 389.636 118.192 392.644C119.856 395.588 120.688 399.108 120.688 403.204C120.688 407.684 119.568 411.652 117.328 415.108C115.152 418.564 112.08 421.252 108.112 423.172C104.208 425.092 99.5999 426.052 94.2879 426.052ZM86.0319 393.412V385.06L102.544 365.668L119.44 365.572L102.256 385.156L86.0319 393.412ZM75.7599 369.988V357.22H119.44V365.572L107.632 369.988H75.7599Z" fill="#FFA800"/>
<path d="M685.689 955.956C682.553 955.956 679.673 955.348 677.049 954.132C674.425 952.916 672.281 951.252 670.617 949.14C668.953 946.964 667.993 944.5 667.737 941.748V922.068C667.993 919.316 668.953 916.82 670.617 914.58C672.281 912.34 674.425 910.58 677.049 909.3C679.673 908.02 682.553 907.38 685.689 907.38C690.105 907.38 694.009 908.436 697.401 910.548C700.857 912.66 703.545 915.54 705.465 919.188C707.449 922.836 708.441 926.996 708.441 931.668C708.441 936.34 707.449 940.5 705.465 944.148C703.545 947.796 700.857 950.676 697.401 952.788C694.009 954.9 690.105 955.956 685.689 955.956ZM683.001 942.708C685.113 942.708 686.937 942.228 688.473 941.268C690.073 940.308 691.321 938.996 692.217 937.332C693.113 935.668 693.561 933.78 693.561 931.668C693.561 929.492 693.113 927.572 692.217 925.908C691.321 924.244 690.073 922.964 688.473 922.068C686.937 921.108 685.145 920.628 683.097 920.628C681.049 920.628 679.225 921.108 677.625 922.068C676.089 922.964 674.873 924.244 673.977 925.908C673.081 927.572 672.633 929.492 672.633 931.668C672.633 933.78 673.049 935.668 673.881 937.332C674.777 938.996 676.025 940.308 677.625 941.268C679.225 942.228 681.017 942.708 683.001 942.708ZM658.809 974.676V908.34H673.497V920.34L671.097 931.668L673.305 942.996V974.676H658.809Z" fill="#FFA800"/>
<path d="M624.288 956.052C619.616 956.052 615.328 955.252 611.424 953.652C607.52 951.988 604.224 949.62 601.536 946.548L611.232 936.852C612.448 938.644 614.208 940.116 616.512 941.268C618.88 942.356 621.376 942.9 624 942.9C626.368 942.9 628.416 942.484 630.144 941.652C631.872 940.82 633.216 939.636 634.176 938.1C635.2 936.564 635.712 934.74 635.712 932.628C635.712 930.516 635.2 928.724 634.176 927.252C633.216 925.716 631.776 924.532 629.856 923.7C628 922.868 625.76 922.452 623.136 922.452C621.92 922.452 620.64 922.548 619.296 922.74C618.016 922.868 616.928 923.092 616.032 923.412L622.656 915.06C624.448 914.548 626.144 914.132 627.744 913.812C629.408 913.428 630.944 913.236 632.352 913.236C635.808 913.236 638.912 914.068 641.664 915.732C644.416 917.332 646.592 919.636 648.192 922.644C649.856 925.588 650.688 929.108 650.688 933.204C650.688 937.684 649.568 941.652 647.328 945.108C645.152 948.564 642.08 951.252 638.112 953.172C634.208 955.092 629.6 956.052 624.288 956.052ZM616.032 923.412V915.06L632.544 895.668L649.44 895.572L632.256 915.156L616.032 923.412ZM605.76 899.988V887.22H649.44V895.572L637.632 899.988H605.76Z" fill="#FFA800"/>
</svg>
