<svg width="1045" height="1045" viewBox="0 0 1045 1045" fill="none" xmlns="http://www.w3.org/2000/svg">
<path d="M25 1045C11.1929 1045 1.33474e-07 1033.81 2.98122e-07 1020L2.6831e-06 820C2.84775e-06 806.193 11.1929 795 25 795L225 795C238.807 795 250 806.193 250 820L250 1020C250 1033.81 238.807 1045 225 1045L25 1045Z" fill="#FF4C30" fill-opacity="0.9"/>
<path fill-rule="evenodd" clip-rule="evenodd" d="M12 820L12 1020C12 1027.18 17.8203 1033 25 1033L225 1033C232.18 1033 238 1027.18 238 1020L238 820C238 812.82 232.18 807 225 807L25 807C17.8203 807 12 812.82 12 820ZM2.98122e-07 1020C1.33474e-07 1033.81 11.1929 1045 25 1045L225 1045C238.807 1045 250 1033.81 250 1020L250 820C250 806.193 238.807 795 225 795L25 795C11.1929 795 2.84775e-06 806.193 2.6831e-06 820L2.98122e-07 1020Z" fill="#FFA800"/>
<path d="M555 1045C541.193 1045 530 1033.81 530 1020L530 820C530 806.193 541.193 795 555 795L755 795C768.807 795 780 806.193 780 820L780 1020C780 1033.81 768.807 1045 755 1045L555 1045Z" fill="#038AFF" fill-opacity="0.9"/>
<path d="M290 1045C276.193 1045 265 1033.81 265 1020L265 820C265 806.193 276.193 795 290 795L490 795C503.807 795 515 806.193 515 820L515 1020C515 1033.81 503.807 1045 490 1045L290 1045Z" fill="#FF4C30" fill-opacity="0.9"/>
<path fill-rule="evenodd" clip-rule="evenodd" d="M277 820L277 1020C277 1027.18 282.82 1033 290 1033L490 1033C497.18 1033 503 1027.18 503 1020L503 820C503 812.82 497.18 807 490 807L290 807C282.82 807 277 812.82 277 820ZM265 1020C265 1033.81 276.193 1045 290 1045L490 1045C503.807 1045 515 1033.81 515 1020L515 820C515 806.193 503.807 795 490 795L290 795C276.193 795 265 806.193 265 820L265 1020Z" fill="#FFA800"/>
<path d="M820 1045C806.193 1045 795 1033.81 795 1020L795 820C795 806.193 806.193 795 820 795L1020 795C1033.81 795 1045 806.193 1045 820L1045 1020C1045 1033.81 1033.81 1045 1020 1045L820 1045Z" fill="#884400"/>
<path d="M25 515C11.1929 515 1.33474e-07 503.807 2.98122e-07 490L2.6831e-06 290C2.84775e-06 276.193 11.1929 265 25 265L225 265C238.807 265 250 276.193 250 290L250 490C250 503.807 238.807 515 225 515L25 515Z" fill="#DCC487"/>
<path d="M555 515C541.193 515 530 503.807 530 490L530 290C530 276.193 541.193 265 555 265L755 265C768.807 265 780 276.193 780 290L780 490C780 503.807 768.807 515 755 515L555 515Z" fill="#E8472E"/>
<path fill-rule="evenodd" clip-rule="evenodd" d="M542 290L542 490C542 497.18 547.82 503 555 503L755 503C762.18 503 768 497.18 768 490L768 290C768 282.82 762.18 277 755 277L555 277C547.82 277 542 282.82 542 290ZM530 490C530 503.807 541.193 515 555 515L755 515C768.807 515 780 503.807 780 490L780 290C780 276.193 768.807 265 755 265L555 265C541.193 265 530 276.193 530 290L530 490Z" fill="#FFA800"/>
<path d="M290 515C276.193 515 265 503.807 265 490L265 290C265 276.193 276.193 265 290 265L490 265C503.807 265 515 276.193 515 290L515 490C515 503.807 503.807 515 490 515L290 515Z" fill="#DCC487"/>
<path d="M820 515C806.193 515 795 503.807 795 490L795 290C795 276.193 806.193 265 820 265L1020 265C1033.81 265 1045 276.193 1045 290L1045 490C1045 503.807 1033.81 515 1020 515L820 515Z" fill="#FF4C30" fill-opacity="0.9"/>
<path fill-rule="evenodd" clip-rule="evenodd" d="M807 290L807 490C807 497.18 812.82 503 820 503L1020 503C1027.18 503 1033 497.18 1033 490L1033 290C1033 282.82 1027.18 277 1020 277L820 277C812.82 277 807 282.82 807 290ZM795 490C795 503.807 806.193 515 820 515L1020 515C1033.81 515 1045 503.807 1045 490L1045 290C1045 276.193 1033.81 265 1020 265L820 265C806.193 265 795 276.193 795 290L795 490Z" fill="#FFA800"/>
<path d="M25 780C11.1929 780 1.33474e-07 768.807 2.98122e-07 755L2.6831e-06 555C2.84775e-06 541.193 11.1929 530 25 530L225 530C238.807 530 250 541.193 250 555L250 755C250 768.807 238.807 780 225 780L25 780Z" fill="#884400"/>
<path d="M555 780C541.193 780 530 768.807 530 755L530 555C530 541.193 541.193 530 555 530L755 530C768.807 530 780 541.193 780 555L780 755C780 768.807 768.807 780 755 780L555 780Z" fill="#038AFF" fill-opacity="0.9"/>
<path d="M290 780C276.193 780 265 768.807 265 755L265 555C265 541.193 276.193 530 290 530L490 530C503.807 530 515 541.193 515 555L515 755C515 768.807 503.807 780 490 780L290 780Z" fill="#E8472E"/>
<path d="M820 780C806.193 780 795 768.807 795 755L795 555C795 541.193 806.193 530 820 530L1020 530C1033.81 530 1045 541.193 1045 555L1045 755C1045 768.807 1033.81 780 1020 780L820 780Z" fill="#FF4C30" fill-opacity="0.9"/>
<path d="M25 250C11.1929 250 1.33474e-07 238.807 2.98122e-07 225L2.6831e-06 25C2.84775e-06 11.1929 11.1929 1.33474e-07 25 2.98122e-07L225 2.6831e-06C238.807 2.84775e-06 250 11.1929 250 25L250 225C250 238.807 238.807 250 225 250L25 250Z" fill="#DCC487"/>
<path d="M555 250C541.193 250 530 238.807 530 225L530 25C530 11.1929 541.193 1.33474e-07 555 2.98122e-07L755 2.6831e-06C768.807 2.84775e-06 780 11.1929 780 25L780 225C780 238.807 768.807 250 755 250L555 250Z" fill="#E8472E"/>
<path d="M290 250C276.193 250 265 238.807 265 225L265 25C265 11.1929 276.193 1.33474e-07 290 2.98122e-07L490 2.6831e-06C503.807 2.84775e-06 515 11.1929 515 25L515 225C515 238.807 503.807 250 490 250L290 250Z" fill="#DCC487"/>
<path d="M820 250C806.193 250 795 238.807 795 225L795 25C795 11.1929 806.193 1.33474e-07 820 2.98122e-07L1020 2.6831e-06C1033.81 2.84775e-06 1045 11.1929 1045 25L1045 225C1045 238.807 1033.81 250 1020 250L820 250Z" fill="#884400"/>
<path d="M685.252 425.96C682.116 425.96 679.236 425.352 676.612 424.136C673.988 422.92 671.844 421.256 670.18 419.144C668.516 416.968 667.556 414.504 667.3 411.752V392.072C667.556 389.32 668.516 386.824 670.18 384.584C671.844 382.344 673.988 380.584 676.612 379.304C679.236 378.024 682.116 377.384 685.252 377.384C689.668 377.384 693.572 378.44 696.964 380.552C700.42 382.664 703.108 385.544 705.028 389.192C707.012 392.84 708.004 397 708.004 401.672C708.004 406.344 707.012 410.504 705.028 414.152C703.108 417.8 700.42 420.68 696.964 422.792C693.572 424.904 689.668 425.96 685.252 425.96ZM682.564 412.712C684.676 412.712 686.5 412.232 688.036 411.272C689.636 410.312 690.884 409 691.78 407.336C692.676 405.672 693.124 403.784 693.124 401.672C693.124 399.496 692.676 397.576 691.78 395.912C690.884 394.248 689.636 392.968 688.036 392.072C686.5 391.112 684.708 390.632 682.66 390.632C680.612 390.632 678.788 391.112 677.188 392.072C675.652 392.968 674.436 394.248 673.54 395.912C672.644 397.576 672.196 399.496 672.196 401.672C672.196 403.784 672.612 405.672 673.444 407.336C674.34 409 675.588 410.312 677.188 411.272C678.788 412.232 680.58 412.712 682.564 412.712ZM658.372 444.68V378.344H673.06V390.344L670.66 401.672L672.868 413V444.68H658.372Z" fill="#FFA800"/>
<path d="M601.304 416.552L627.32 389.672C628.92 388.072 630.2 386.6 631.16 385.256C632.12 383.912 632.824 382.664 633.272 381.512C633.72 380.296 633.944 379.08 633.944 377.864C633.944 375.24 633.08 373.192 631.352 371.72C629.688 370.184 627.48 369.416 624.728 369.416C622.04 369.416 619.608 370.152 617.432 371.624C615.32 373.032 613.272 375.368 611.288 378.632L601.208 369.896C603.896 365.352 607.32 361.928 611.48 359.624C615.64 357.32 620.408 356.168 625.784 356.168C630.456 356.168 634.488 357.032 637.88 358.76C641.336 360.488 643.992 362.952 645.848 366.152C647.768 369.352 648.728 373.096 648.728 377.384C648.728 380.072 648.376 382.568 647.672 384.872C646.968 387.112 645.816 389.352 644.216 391.592C642.68 393.768 640.6 396.168 637.976 398.792L619.928 416.744L601.304 416.552ZM601.304 425V416.552L614.072 412.136H650.072V425H601.304Z" fill="#FFA800"/>
<path d="M420.252 955.96C417.116 955.96 414.236 955.352 411.612 954.136C408.988 952.92 406.844 951.256 405.18 949.144C403.516 946.968 402.556 944.504 402.3 941.752V922.072C402.556 919.32 403.516 916.824 405.18 914.584C406.844 912.344 408.988 910.584 411.612 909.304C414.236 908.024 417.116 907.384 420.252 907.384C424.668 907.384 428.572 908.44 431.964 910.552C435.42 912.664 438.108 915.544 440.028 919.192C442.012 922.84 443.004 927 443.004 931.672C443.004 936.344 442.012 940.504 440.028 944.152C438.108 947.8 435.42 950.68 431.964 952.792C428.572 954.904 424.668 955.96 420.252 955.96ZM417.564 942.712C419.676 942.712 421.5 942.232 423.036 941.272C424.636 940.312 425.884 939 426.78 937.336C427.676 935.672 428.124 933.784 428.124 931.672C428.124 929.496 427.676 927.576 426.78 925.912C425.884 924.248 424.636 922.968 423.036 922.072C421.5 921.112 419.708 920.632 417.66 920.632C415.612 920.632 413.788 921.112 412.188 922.072C410.652 922.968 409.436 924.248 408.54 925.912C407.644 927.576 407.196 929.496 407.196 931.672C407.196 933.784 407.612 935.672 408.444 937.336C409.34 939 410.588 940.312 412.188 941.272C413.788 942.232 415.58 942.712 417.564 942.712ZM393.372 974.68V908.344H408.06V920.344L405.66 931.672L407.868 943V974.68H393.372Z" fill="#FFA800"/>
<path d="M336.304 946.552L362.32 919.672C363.92 918.072 365.2 916.6 366.16 915.256C367.12 913.912 367.824 912.664 368.272 911.512C368.72 910.296 368.944 909.08 368.944 907.864C368.944 905.24 368.08 903.192 366.352 901.72C364.688 900.184 362.48 899.416 359.728 899.416C357.04 899.416 354.608 900.152 352.432 901.624C350.32 903.032 348.272 905.368 346.288 908.632L336.208 899.896C338.896 895.352 342.32 891.928 346.48 889.624C350.64 887.32 355.408 886.168 360.784 886.168C365.456 886.168 369.488 887.032 372.88 888.76C376.336 890.488 378.992 892.952 380.848 896.152C382.768 899.352 383.728 903.096 383.728 907.384C383.728 910.072 383.376 912.568 382.672 914.872C381.968 917.112 380.816 919.352 379.216 921.592C377.68 923.768 375.6 926.168 372.976 928.792L354.928 946.744L336.304 946.552ZM336.304 955V946.552L349.072 942.136H385.072V955H336.304Z" fill="#FFA800"/>
<path d="M155.252 955.96C152.116 955.96 149.236 955.352 146.612 954.136C143.988 952.92 141.844 951.256 140.18 949.144C138.516 946.968 137.556 944.504 137.3 941.752V922.072C137.556 919.32 138.516 916.824 140.18 914.584C141.844 912.344 143.988 910.584 146.612 909.304C149.236 908.024 152.116 907.384 155.252 907.384C159.668 907.384 163.572 908.44 166.964 910.552C170.42 912.664 173.108 915.544 175.028 919.192C177.012 922.84 178.004 927 178.004 931.672C178.004 936.344 177.012 940.504 175.028 944.152C173.108 947.8 170.42 950.68 166.964 952.792C163.572 954.904 159.668 955.96 155.252 955.96ZM152.564 942.712C154.676 942.712 156.5 942.232 158.036 941.272C159.636 940.312 160.884 939 161.78 937.336C162.676 935.672 163.124 933.784 163.124 931.672C163.124 929.496 162.676 927.576 161.78 925.912C160.884 924.248 159.636 922.968 158.036 922.072C156.5 921.112 154.708 920.632 152.66 920.632C150.612 920.632 148.788 921.112 147.188 922.072C145.652 922.968 144.436 924.248 143.54 925.912C142.644 927.576 142.196 929.496 142.196 931.672C142.196 933.784 142.612 935.672 143.444 937.336C144.34 939 145.588 940.312 147.188 941.272C148.788 942.232 150.58 942.712 152.564 942.712ZM128.372 974.68V908.344H143.06V920.344L140.66 931.672L142.868 943V974.68H128.372Z" fill="#FFA800"/>
<path d="M71.304 946.552L97.32 919.672C98.92 918.072 100.2 916.6 101.16 915.256C102.12 913.912 102.824 912.664 103.272 911.512C103.72 910.296 103.944 909.08 103.944 907.864C103.944 905.24 103.08 903.192 101.352 901.72C99.688 900.184 97.48 899.416 94.728 899.416C92.04 899.416 89.608 900.152 87.432 901.624C85.32 903.032 83.272 905.368 81.288 908.632L71.208 899.896C73.896 895.352 77.32 891.928 81.48 889.624C85.64 887.32 90.408 886.168 95.784 886.168C100.456 886.168 104.488 887.032 107.88 888.76C111.336 890.488 113.992 892.952 115.848 896.152C117.768 899.352 118.728 903.096 118.728 907.384C118.728 910.072 118.376 912.568 117.672 914.872C116.968 917.112 115.816 919.352 114.216 921.592C112.68 923.768 110.6 926.168 107.976 928.792L89.928 946.744L71.304 946.552ZM71.304 955V946.552L84.072 942.136H120.072V955H71.304Z" fill="#FFA800"/>
<path d="M950.252 425.96C947.116 425.96 944.236 425.352 941.612 424.136C938.988 422.92 936.844 421.256 935.18 419.144C933.516 416.968 932.556 414.504 932.3 411.752V392.072C932.556 389.32 933.516 386.824 935.18 384.584C936.844 382.344 938.988 380.584 941.612 379.304C944.236 378.024 947.116 377.384 950.252 377.384C954.668 377.384 958.572 378.44 961.964 380.552C965.42 382.664 968.108 385.544 970.028 389.192C972.012 392.84 973.004 397 973.004 401.672C973.004 406.344 972.012 410.504 970.028 414.152C968.108 417.8 965.42 420.68 961.964 422.792C958.572 424.904 954.668 425.96 950.252 425.96ZM947.564 412.712C949.676 412.712 951.5 412.232 953.036 411.272C954.636 410.312 955.884 409 956.78 407.336C957.676 405.672 958.124 403.784 958.124 401.672C958.124 399.496 957.676 397.576 956.78 395.912C955.884 394.248 954.636 392.968 953.036 392.072C951.5 391.112 949.708 390.632 947.66 390.632C945.612 390.632 943.788 391.112 942.188 392.072C940.652 392.968 939.436 394.248 938.54 395.912C937.644 397.576 937.196 399.496 937.196 401.672C937.196 403.784 937.612 405.672 938.444 407.336C939.34 409 940.588 410.312 942.188 411.272C943.788 412.232 945.58 412.712 947.564 412.712ZM923.372 444.68V378.344H938.06V390.344L935.66 401.672L937.868 413V444.68H923.372Z" fill="#FFA800"/>
<path d="M866.304 416.552L892.32 389.672C893.92 388.072 895.2 386.6 896.16 385.256C897.12 383.912 897.824 382.664 898.272 381.512C898.72 380.296 898.944 379.08 898.944 377.864C898.944 375.24 898.08 373.192 896.352 371.72C894.688 370.184 892.48 369.416 889.728 369.416C887.04 369.416 884.608 370.152 882.432 371.624C880.32 373.032 878.272 375.368 876.288 378.632L866.208 369.896C868.896 365.352 872.32 361.928 876.48 359.624C880.64 357.32 885.408 356.168 890.784 356.168C895.456 356.168 899.488 357.032 902.88 358.76C906.336 360.488 908.992 362.952 910.848 366.152C912.768 369.352 913.728 373.096 913.728 377.384C913.728 380.072 913.376 382.568 912.672 384.872C911.968 387.112 910.816 389.352 909.216 391.592C907.68 393.768 905.6 396.168 902.976 398.792L884.928 416.744L866.304 416.552ZM866.304 425V416.552L879.072 412.136H915.072V425H866.304Z" fill="#FFA800"/>
</svg>
